<?xml version="1.0" encoding="UTF-8"?>
<svg version="1.1" viewBox="0 0 2048 661" width="1280" height="1280" xmlns="http://www.w3.org/2000/svg">
<path transform="translate(1908,202)" d="m0 0 3 3 3 1v3l5 2 6 4 6 7 2 6 6 12 6 18 2 10 3 9 1 10 2 7-2 10v2h-2l-2 10-3 9-4 4-1 3-9 3-4-1-16-2h-7l1 3-3 1-1 6-8 9h-7l-7-3-9-4-9-3-4 4-2 4-7 4-5 3-8 1-3 2h-9l-7-4-15-5-7-1v-2l-8-1-7-1-21 7-5 1-1 2-19 2-5 2-31 1-3 1h-9l-7 1-3 2h-11l-50 3-4 2h-54l-36 2-59 1-1 1h-121l-1 1h-43l-21-1-2-1-19-1h-31l-2-1-19-1-44-1-1-1-21-1-23-2-9-2-13-2-17-1h-13l-5-2-14-2-18-2-13-2-1-1h-10l-5-1-1-2-21-3-11-3-19-2-10-4-9-1v-2l-4-1-9-3-4-2h-3l-8-5-9-3-4 1-8 16-2 3-4 1-19-9-7-1-3 3-2 9-5 8-1 4-3 1-3 5-13 7-14 4-8 2-8 3-11 1v2l-8 1v2h-7l1-4 5-3h4v-2l8-3 6-3 3-3 4 1v-2l12-8 4-3h2l2-2 2-1 3-1 1-3 7-3 1-2h2v-2l4-3h2l1-5 4-1-1-5-4-1-8-3-3-5 1-9 3-8 2-6 5-8-2-6 4 2 1-2 3-1 9-9 6-3 3-2 6-2h10l6 3 2 5 4 8 8 9 9 6 5 1 3 1 1 2 10 4 13 5 11 3 5 1 4 2 22 3 1 2h6l2-1v2l9 1 1 1h6l3 2 27 4 4 1 6 1 20 2h10l3 2h8l2 1 30 3h8l3 2h6l1 1 55 3 1 1h27l1 1 44 2h80l7 2h91l14-1 3-1h37l40-1 20-1 4-2 1 1h30l3-1 16-1 2 1v-2h18l16-1 2-1h5l4-2 32-1 16-1 4-1h6l4-2 2 1 11-2 44-1v-2l16-4 4-3 5-1 1-3 7-2v-2l7-7 5-10h5l-2 11-3 3-1 5h-2l-1 6-4 5-4 7 4 2 24-3 4-1h15l6-2 5-5 6-7 4-9 5-6 3 1-1 9-3 6v7l3 3 7-1-1 3 8-1 2-2 3-10 5-9 5-6 4-1v11l4 2 8 1 1 1 14 1 3-1-1-17-4-11-6-22-2-6-4 2h-5v-2l-8-2-1-6-5-5-2-5-3-1v-9l2-12 3-6 2-5z" fill="#060606"/>
<path transform="translate(411,158)" d="m0 0h10l5 2h2v2l7 1 9 2v3l9 1 9 3 5 2 13 2h20l9-3 2-1 7-1 2 3-1 6-2 3 2 1-2 1-2 11h-2l1 3-2 1-2 4-2 3-1-1h-21l-1 1-15 2-9 2-5 3-6 3-5 1-4 3 2 2-2 4 3 1 4 6 3 12 1 3v18l-2 5h-2l-1 5-5 5h-4l-1 3-1-1-22-2-5-3h-3l-5 7-5 9-5 1v2l-6 4 1 24-1 1-2 16-4 16-4 9-2 5-2 2-2 10h-3l1 3-3 7-5 5-8 7-4 1-1 2-11 7-5 2-2 2h-2l-14 7-26 1-3 1v-2h-7l-6-4-5-3-4-4-4-1-3-6-5-2v-7l-2-7v-10l-2-1 2-3 1-23 3-9 4-10v-3h2l3-9 3-2v-3l4-4 4-6 4-1 1 1v5l-8 10-1 3h-2v9l-3 5-2 8v13l5 13 6 8v2l5 1 1 3 5 2 9 5 11 1 15-1 10-3 6-4 9-4 4-4h3l2-3 5-3 6-4h2l5-20-1-16-2-3 1-8-3-9 1-2h-2l-4-8-5-5v-7l3-7 2-6 2-7 4-3 5 2 5 4 7 1 7-2v-2l6-3h4l1-5 2-9 2-7 6-12 2-5 3-5 2-7 6-5 2-4h2v-2h2l1-2 10-5 9-6 2-1v-3l-10-2h-17l-28 1v2l-8 1v-16l1-12 1-2 7-1z" fill="#0A0A0A"/>
<path transform="translate(106,160)" d="m0 0 9 1 11 1 3 2h2v2l6 1 8 3 12 4h3v3l8-2v2l14 4 20 2 3 1-1-3h2v3l4-2h7l1 1v6l-3 6-2 7-4 1-1 6-3 3-1 4-10 1-2 1-23 3-5 4-5 2-7 6h-2l-2 4-14 7v2l-7 3-5 3-11 4-11 1-8-7-7-6-4-1 1 3-4-2-3-2-7 3-3 3 1 1-1 3 5 1 14 13 5 7v2l4 2 2 4 3 3v10l-2 4-2 7-3 2-1 5h-2v3l-15-3-3-2h-15l-13 3-6 2-3 5v8l2 7 2 13 5 18 2 13 2 5 1 5 2 16 2 5 3 14 1 9v3 10l1 6v12l-1 1v7l-1 1-1 14h-7v-15l-2-14-4-1 2-1-1-8-2-13-3-2h2l-2-8-2-13-2-7 1-3-2-1-2-12-2-3 1-4-2-1-2-14-1-5-2-7-1-27 3-8v-2h2l1-9 5-13 3-4-1-2h2l1-2 4-2h-3-4l-1 2 1-10 4-9 1-4 6-10 3-6 8-7 5-6-1-2 4 1 1-3 6-5 1-2 6-3 5-3 12-1 9 6 5 5h11l14-8 5-3 7-3 3-3 7-4-1-5h-8v-2l-12-3-8-4-16-1-17 4-16 1-2-3-1-5h3v-8l4-8 1-3 6-5 12-5z" fill="#0A0A0A"/>
<path transform="translate(762,203)" d="m0 0 3 1 1 40 3 9 3 21 1 1 1 12v25l-1 7-3 5h2l-1 3h-2l-1 8-2 7h-2l-2 4-2 3-5 3-5 2-10-2-5-4-4-2-4-8-3-2 1-2-2-4v-3h-4l-1 15h-2v2h-2l-1 3-3 3-2 5-2 1-3-1-1 4-11 4h-6l-8-3-7-5v-2l-2-1-5-7-1-4-2-6-1-13-5 3-2 4-8 7-4 3-7 1v2l-5 2h-13v-2l-3 1-4-3v-2l-4-2v-7l1-2h2l2-5 7-8 5-5 1-4 4-2 2-3 5-3 8-7-2-1 1-2 5 2 3-1v-2l6-4 3-1 2-9 1-7v-2l2-2v-3l4-1 1 30 2 3-1 1v19l2 5 7 9 7 7 7 1 9-1 6-3h2l2-4 6-7 2-14v-21l-1-6v-10h-2l-2-12-1-10v-25l3-9 4-1 3 10 1 10 2 18 1 1v11l1 5 2 21 1 4 1 8 2 6v4l2 1 4 8 7 4 9 4 7-4-1-4-2-23-4-17-1-9-1-3 1-26 1-12z" fill="#0C0C0C"/>
<path transform="translate(224,119)" d="m0 0h2l2 6v3l-3 3v9l2 3 5 3 1 4 5 1 6 5v2l4 1 1 5h2v11l-2 18-1 25 2 1 1 11 1 17v13l-2 21-3 7-6 18-3 1-2 5h-2v2l-8 7-2 1-13 1-2 4-2 15-2 2-3 11-1 2 1 3-3 4-3 9-4 7v3l-5 3-5 6-1 3-5 3-3 3-3 2-18-1-23-4-11-3-15-7-1-3h-3v-5l3-2v2l4 2 5 3 8 3h15l4 1 4-2 10-2 6-3 7-3 7-5 1-3h3l5-6 2-2 6-7 11-22 3-8 1-4h-2v-2l-5-1-4-2-2-5v-15l3-15 2-3 5 1 2 6 8 4 7 1h10l8-2v-4h2l1-9-2-28-1-1v-11l-1-1v-8h-2v-19l-2-13-2-2-2-11-3-8-4-4v-2h-3l-3-9 1-14 2-3 1-11 4-10h2z" fill="#0C0C0C"/>
<path transform="translate(541,115)" d="m0 0h4l-1 8-4 10v10l6 8 8 6 8 4 8 7-1 6-3 10-4 11v11l1 3 1 13 1 11 2 5-1 34-3 9-3 7-3 10-2 3-2 4-4 6v4h-2l-3 4-9 1-5 2h-6l1 4h-3l1 5h-2l-1 8v3l-1 2h-2l2 4-3 2-3 9h-2v5h-2l1 4-7 8-5 5h-3l-1 4-8 5-7 2-37-6-12-4v-3h-5l-2-4-4-2-2-4-3-1 2-4 7 6v2l7 2 7 3 6 2 1-2 1 1h13l5-1 6-1v-2h6v-2l8-2v-2l8-6 5-6 5-5 1-3 4-2v-3l3-3 3-5 1-5-2-2 4-1 1-5-4-1-6-7-3-6v-12l1-1 1-8 2-5-2-5 9 5 1 6h2v3l11 2 4 1 7-2h7l8-3 2-9-1-16-1-2 1-12-3-1 1-4-1-5v-2l-3-27-3-9v-8l-2-8-2-3h2v-2l-3-1v-2l-5-1v-4h-2l-4-10v-13l1-11v-6l4-5 4-10z" fill="#0E0E0E"/>
<path transform="translate(272,126)" d="m0 0 3 3-1 7 2 1-1 2 3 14 1 5 2 4v6h2l2 7v6l2 1 1 8 2 4-1 5 2 3 2 28v4l-2 17-3 7-2 9v3l-3 5-3 10-4 1-4-5h3l2-10h2v-34l-2-2-1-15-1-2h2v-4l-2-1h2l-2-6-2-16-4-13-2-5-2-11v-15l3-8 2-10z" fill="#0F0F0F"/>
<path transform="translate(150,315)" d="m0 0h5l9 10 7 6 2 7-6 7-5 5-4 6-3 3-5-2-2-5-8-4-1-5h-3v-2h-3v2h-2l-2 7-2 1-4 5-6 1-5-5-4-2-5-5-2-1v-2l-2-5h2v-2h2l2-4 6-9 4-5h6l7 8 5 2 2 1-1 2 5-2 3-1 2-4 4-5z" fill="#0D0D0D"/>
<path transform="translate(584,135)" d="m0 0 4 2v15l2 7 2 2v2l2 5 2 7 2 4 1 9 2 11 1 1 2 19v41l-3 12-3 11-3 5h-2l-1 7-4 2v-5l2-1 1-8 2-18-1-4v-16l-1-12-1-2-1-11 1-2h-2l-3-29-4-9-1-11-1-1-1-9 1-4v-2h2l-1-3 2-5v-8z" fill="#0D0D0D"/>
<path transform="translate(801,146)" d="m0 0 5 1v11l2 10 2 4 4 23 1 1 1 32 1 3-1 17-2 7-1 5-2 11-3 5-1 8-4 7-4 8h-2v-5l1-1 1-7 4-10 1-5v-7l-1-2v-36l-1-1-2-21-1-4 1-53z" fill="#0C0C0C"/>
<path transform="translate(307,276)" d="m0 0h6l6 5v3l6 2v2l4 1v10h-2v3h-3l1 3-2 2v5l-2 1-4 4h-2v2h-2l-5-5-6-4-1-3-5-4-1-4 8-16z" fill="#171717"/>
<path transform="translate(1926,364)" d="m0 0h4l5 5 4 3 5 2 6 6v3h-2l-1 5-8 8-6 5-6-1-2-4-5-2-9-7-2-2 6-8 6-9 5-1z" fill="#131313"/>
<path transform="translate(823,99)" d="m0 0 5 4 3 7-2 5-6 8-4 3-9 3h-10l-6-2-5 1-12 9-3 2v-8h3l1-4 10-9 4-2 6 1 6-7h2l6-7z" fill="#171717"/>
<path transform="translate(604,80)" d="m0 0h6l5 2 2 4 1 9-5 6-2 3-5 2-6 4-17 2-4-1-8 5h-4l4-10 9-5 5-1 13-13h2l2-5-2-1z" fill="#161616"/>
<path transform="translate(664,161)" d="m0 0h6l1 2 2-1v3h2l2 5v3l-1 4-4-2-5-2h-2l1 3-2 3v5l-1 1-2 25-2 3-2-2-3-16-3-5-3-7-12-1-4-7-1-1v-10l3-2 9 3 5 5 6 9v2h2l1 2 2-1 2-11 1-9z" fill="#191919"/>
<path transform="translate(854,279)" d="m0 0 9 1 3 4 5 17v6l-13-3-10-4-11-7v-3l7-7z" fill="#FEFEFE"/>
<path transform="translate(648,363)" d="m0 0h2v7l-4 4-7 3-7 5h-2l-7 7-5 3-9 7-5 1-7 5-6 2-1 2-3 1 1 2-6-3v-2h2l2-5 3-1-1-3 9-3h3v-2l3-2h4v-2l7-4h2v-3l5-2 7-4 5-5 6-2 2-3 4-2z" fill="#232323"/>
<path transform="translate(384,400)" d="m0 0h5v9l-7 6h-3l-1 3-4 1-5 3-7 3-9 8-9 4-3 4-4 2h-3v-8l3-3 4-3 11-7-1-4 3 2 4-1v-2l6-2 1-3 4-1 10-7z" fill="#1C1C1C"/>
<path transform="translate(524,234)" d="m0 0 3 2v13l-3 7-13 3-3 3h-2l-4 5h-8l-5-2-1-5-3-1v-3l1-6-1-2 4-9 4 1-1 4v7l1 4 2 1-1 2 4-2 4-1 5-8 1-4 4 1 1 4 5-1 2-4v-7z" fill="#1E1E1E"/>
<path transform="translate(329,134)" d="m0 0 4 2 1 4v2l4 2 2 5 4 4 2 7 3 3 3 7 5 14 1 4v15l-2 5-2 4h-2l-1 3-2-1 2-6 2-1v-5l-1-3-1-12-5-12-3-9-4-2-8-14-1-3-3-1v-11z" fill="#1E1E1E"/>
<path transform="translate(209,238)" d="m0 0 7 1-2 1v10l-3 7-4 4h-13l-3 1-1 3-5 2-10-1-3-1 1-16 2-2 1-4h2l1 13 4 1 9-4 3-7 3-1 2 3v3l7-2 1-10z" fill="#181818"/>
<path transform="translate(1850,225)" d="m0 0h12l8 3 2 1v7l-9 16h-3l-2 3-5 3-7 3-5 1-3 1-8 1v-2l8-4 5-1 7-4h3l1-3 4-2 5-6 2-1 1-3-8-2h-13l-6 3-3 1v-5l5-5 7-4z" fill="#1A1A1A"/>
<path transform="translate(871,367)" d="m0 0h2v5l-10 8-6 2-7 3h-3l-2 4-3 1-2-1v2l-12 6-10 4h-2l-1 2-5 1v-5l3-1-1-3 19-9 13-7 16-8 5-2z" fill="#151515"/>
<path transform="translate(725,172)" d="m0 0h2l2 6v13l-2 4-3 2h-8-3l-4 5h-12l-2-6v-20l3 1 1 12 5 2 5-1 5-8 1 2h2v3l5 1v-2h2l-1-2v-7z" fill="#171717"/>
<path transform="translate(160,272)" d="m0 0h3l2 4-4 6-6 2-10 7-7 3-5 3h-2v2l-4 1-6 1v2l-5 4-4-2v-2h2l1-6h4l2-4 18-9 4-3 7-1 4-5z" fill="#202020"/>
<path transform="translate(200,120)" d="m0 0h4l3 6-4-1v2h-2l-1 4-5 1-3 3-5 2h-5v5l-9 3v2l-5 3-7 5h-2v2l-3-1v-9l16-10h2v-2l5-1 1-2 4-3 4-1 1-2h3l1-3v2z" fill="#222"/>
<path transform="translate(655,293)" d="m0 0h2l1 5v16l-7 3-1 1h-14l-9-4 2-4 7-4 9-4 8-7z" fill="#FEFEFE"/>
<path transform="translate(1952,406)" d="m0 0h3l-1 5-3-1v3l-10 5-6 2-2 2-10 3-9 3v2l-6 1-1 3-1-1-5 2-11 7-1 2-4-1 1-4 5-6 5-1 7-5 5-2 4-3 7-1-1-3 2-1v2l12-5 5-1 3-1-1-2h6z" fill="#242424"/>
<path transform="translate(51,158)" d="m0 0 1 3h4l1 10-1 7-3 3-2 6-3 1-3 5-8 4-4-1 7-7h2v-2l2-2 3-5 3-1 1-8-4-2h-3l-2 2-7 1-5 2 1 3-4-1v-9l4-1 1-3 5-2h13z" fill="#1A1A1A"/>
<path transform="translate(517,114)" d="m0 0h7v3l-2 3-2 4-6-1v2h-4v2l-7 4-5 3-5 5-8 5-2 2-5-2 2-6 4-5 4-3h4l2-4 7-2 5-3v-2l5-1 3-3z" fill="#252525"/>
<path transform="translate(692,105)" d="m0 0 5 1-1 3 3 1 3 5 2 11 2 3v3l2 12v24h-2l-1-9-1-1-2-12-2-2h2l-3-8v-7h-2l-3-9-3-1v-2l-3-1 3-8z" fill="#232323"/>
<path transform="translate(434,317)" d="m0 0 5 1-1 7h-2l-1 12 2 1v2l6 1 2-6 3-3 4 1 1 2-2 9-1 2h-2l1 3-2 1-2-1v2h-11l-2-1v-4h-2v-16l3-12z" fill="#1D1D1D"/>
<path transform="translate(422,245)" d="m0 0 9 2 5 6 1 6-1 1h-10l-6-3-4-5 2-5z" fill="#FEFEFE"/>
<path transform="translate(603,91)" d="m0 0 5 1v4l-9 7-5-2 2-6 3-3z" fill="#FEFEFE"/>
<path transform="translate(47,279)" d="m0 0 5 1 1 4-4 2h-8-4l-2-1 7-5z" fill="#FEFEFE"/>
<path transform="translate(814,112)" d="m0 0h7l-1 5-6 2h-5l1-5z" fill="#FEFEFE"/>
<path transform="translate(1857,318)" d="m0 0v3l-4 3 2-4z" fill="#FEFEFE"/>
<path transform="translate(1746,223)" d="m0 0h2v3h-3z" fill="#FEFEFE"/>
<path transform="translate(339,443)" d="m0 0 3 1-4 2z" fill="#FEFEFE"/>
<path transform="translate(821,402)" d="m0 0 1 2-2 2v-3z" fill="#FEFEFE"/>
<path transform="translate(183,394)" d="m0 0 4 1h-4z" fill="#FEFEFE"/>
<path transform="translate(857,382)" d="m0 0 2 1-4 2z" fill="#FEFEFE"/>
<path transform="translate(357,367)" d="m0 0 2 4h-2z" fill="#FEFEFE"/>
<path transform="translate(194,337)" d="m0 0 2 1-3 2z" fill="#FEFEFE"/>
<path transform="translate(49,488)" d="m0 0 2 2-2 1z" fill="#FEFEFE"/>
<path transform="translate(277,432)" d="m0 0 3 1h-3z" fill="#FEFEFE"/>
<path transform="translate(373,422)" d="m0 0 2 1h-3z" fill="#FEFEFE"/>
<path transform="translate(250,413)" d="m0 0 2 2-3-1z" fill="#FEFEFE"/>
<path transform="translate(818,401)" d="m0 0v3z" fill="#FEFEFE"/>
<path transform="translate(622,391)" d="m0 0 2 2-3-1z" fill="#FEFEFE"/>
<path transform="translate(186,391)" d="m0 0 2 1-1 2z" fill="#FEFEFE"/>
<path transform="translate(194,384)" d="m0 0 2 1h-3z" fill="#FEFEFE"/>
<path transform="translate(795,372)" d="m0 0h2v2h-2z" fill="#FEFEFE"/>
<path transform="translate(766,368)" d="m0 0 2 1h-3z" fill="#FEFEFE"/>
<path transform="translate(786,359)" d="m0 0v3z" fill="#FEFEFE"/>
<path transform="translate(740,353)" d="m0 0 3 1h-3z" fill="#FEFEFE"/>
<path transform="translate(163,352)" d="m0 0 2 1h-3z" fill="#FEFEFE"/>
<path transform="translate(711,350)" d="m0 0 2 1-1 2z" fill="#FEFEFE"/>
<path transform="translate(812,339)" d="m0 0 3 1h-3z" fill="#FEFEFE"/>
<path transform="translate(841,330)" d="m0 0v3z" fill="#FEFEFE"/>
<path transform="translate(274,324)" d="m0 0v3z" fill="#FEFEFE"/>
<path transform="translate(1793,309)" d="m0 0h2v2h-2z" fill="#FEFEFE"/>
<path transform="translate(928,301)" d="m0 0h2v2h-2z" fill="#FEFEFE"/>
<path transform="translate(900,288)" d="m0 0v3z" fill="#FEFEFE"/>
<path transform="translate(1904,255)" d="m0 0 3 1h-3z" fill="#FEFEFE"/>
<path transform="translate(1835,229)" d="m0 0 3 1h-3z" fill="#FEFEFE"/>
<path transform="translate(354,213)" d="m0 0 3 1h-3z" fill="#FEFEFE"/>
<path transform="translate(1905,202)" d="m0 0 2 1h-3z" fill="#FEFEFE"/>
<path transform="translate(698,171)" d="m0 0h2v2h-2z" fill="#FEFEFE"/>
<path transform="translate(92,160)" d="m0 0 2 1h-3z" fill="#FEFEFE"/>
<path transform="translate(90,159)" d="m0 0 2 1h-3z" fill="#FEFEFE"/>
<path transform="translate(162,140)" d="m0 0 2 1h-3z" fill="#FEFEFE"/>
<path transform="translate(58,481)" d="m0 0 2 2h-2z" fill="#FEFEFE"/>
<path transform="translate(57,451)" d="m0 0h2l-1 2z" fill="#FEFEFE"/>
<path transform="translate(1894,426)" d="m0 0 1 2-2-1z" fill="#FEFEFE"/>
<path transform="translate(1936,409)" d="m0 0 2 2h-2z" fill="#FEFEFE"/>
<path transform="translate(177,402)" d="m0 0 1 2-2-1z" fill="#FEFEFE"/>
<path transform="translate(327,388)" d="m0 0 2 1-2 1z" fill="#FEFEFE"/>
<path transform="translate(107,380)" d="m0 0 2 2h-2z" fill="#FEFEFE"/>
<path transform="translate(103,376)" d="m0 0 1 2-2-1z" fill="#FEFEFE"/>
<path transform="translate(861,367)" d="m0 0 2 2h-2z" fill="#FEFEFE"/>
<path transform="translate(1925,359)" d="m0 0 2 2h-2z" fill="#FEFEFE"/>
<path transform="translate(180,360)" d="m0 0h2l-1 2z" fill="#FEFEFE"/>
<path transform="translate(203,353)" d="m0 0 2 2h-2z" fill="#FEFEFE"/>
<path transform="translate(665,352)" d="m0 0 2 1-2 1z" fill="#FEFEFE"/>
<path transform="translate(133,343)" d="m0 0 2 2h-2z" fill="#FEFEFE"/>
<path transform="translate(227,322)" d="m0 0 1 2-2-1z" fill="#FEFEFE"/>
<path transform="translate(259,321)" d="m0 0 2 1-2 1z" fill="#FEFEFE"/>
<path transform="translate(163,319)" d="m0 0 1 2-2-1z" fill="#FEFEFE"/>
<path transform="translate(140,319)" d="m0 0 1 2-2-1z" fill="#FEFEFE"/>
<path transform="translate(824,284)" d="m0 0 2 2h-2z" fill="#FEFEFE"/>
<path transform="translate(888,279)" d="m0 0h2l-1 2z" fill="#FEFEFE"/>
<path transform="translate(654,278)" d="m0 0 2 1-2 1z" fill="#FEFEFE"/>
<path transform="translate(31,266)" d="m0 0 2 2h-2z" fill="#FEFEFE"/>
<path transform="translate(213,252)" d="m0 0" fill="#FEFEFE"/>
<path transform="translate(185,252)" d="m0 0 2 2h-2z" fill="#FEFEFE"/>
<path transform="translate(127,249)" d="m0 0" fill="#FEFEFE"/>
<path transform="translate(153,233)" d="m0 0 2 2h-2z" fill="#FEFEFE"/>
<path transform="translate(1835,231)" d="m0 0 1 2-2-1z" fill="#FEFEFE"/>
<path transform="translate(61,229)" d="m0 0 2 2h-2z" fill="#FEFEFE"/>
<path transform="translate(1752,220)" d="m0 0 2 1-2 1z" fill="#FEFEFE"/>
<path transform="translate(422,211)" d="m0 0 2 1-2 1z" fill="#FEFEFE"/>
<path transform="translate(765,201)" d="m0 0 2 1-2 1z" fill="#FEFEFE"/>
<path transform="translate(442,199)" d="m0 0h2l-1 2z" fill="#FEFEFE"/>
<path transform="translate(354,172)" d="m0 0 2 2h-2z" fill="#FEFEFE"/>
<path transform="translate(58,172)" d="m0 0 2 2h-2z" fill="#FEFEFE"/>
<path transform="translate(463,171)" d="m0 0h2l-1 2z" fill="#FEFEFE"/>
<path transform="translate(625,169)" d="m0 0 2 1-2 1z" fill="#FEFEFE"/>
<path transform="translate(21,169)" d="m0 0 2 1-2 1z" fill="#FEFEFE"/>
<path transform="translate(330,152)" d="m0 0 2 1-2 1z" fill="#FEFEFE"/>
<path transform="translate(695,130)" d="m0 0 1 2-2-1z" fill="#FEFEFE"/>
<path transform="translate(819,126)" d="m0 0 2 1-2 1z" fill="#FEFEFE"/>
<path transform="translate(588,92)" d="m0 0h2l-1 2z" fill="#FEFEFE"/>
<path transform="translate(58,478)" d="m0 0 2 1z" fill="#FEFEFE"/>
<path transform="translate(343,443)" d="m0 0" fill="#FEFEFE"/>
<path transform="translate(1920,432)" d="m0 0 2 1z" fill="#FEFEFE"/>
<path transform="translate(355,432)" d="m0 0 2 1z" fill="#FEFEFE"/>
<path transform="translate(294,432)" d="m0 0 2 1z" fill="#FEFEFE"/>
<path transform="translate(1914,431)" d="m0 0 2 1z" fill="#FEFEFE"/>
<path transform="translate(269,424)" d="m0 0" fill="#FEFEFE"/>
<path transform="translate(1939,423)" d="m0 0 2 1z" fill="#FEFEFE"/>
<path transform="translate(1914,417)" d="m0 0 2 1z" fill="#FEFEFE"/>
<path transform="translate(1950,415)" d="m0 0 2 1z" fill="#FEFEFE"/>
<path transform="translate(391,415)" d="m0 0 2 1z" fill="#FEFEFE"/>
<path transform="translate(389,411)" d="m0 0" fill="#FEFEFE"/>
<path transform="translate(1943,408)" d="m0 0" fill="#FEFEFE"/>
<path transform="translate(593,407)" d="m0 0" fill="#FEFEFE"/>
<path transform="translate(813,404)" d="m0 0 2 1z" fill="#FEFEFE"/>
<path transform="translate(603,402)" d="m0 0" fill="#FEFEFE"/>
<path transform="translate(805,400)" d="m0 0" fill="#FEFEFE"/>
<path transform="translate(584,399)" d="m0 0 2 1z" fill="#FEFEFE"/>
<path transform="translate(1922,397)" d="m0 0" fill="#FEFEFE"/>
<path transform="translate(385,397)" d="m0 0" fill="#FEFEFE"/>
<path transform="translate(101,394)" d="m0 0 2 1z" fill="#FEFEFE"/>
<path transform="translate(282,391)" d="m0 0 2 1z" fill="#FEFEFE"/>
<path transform="translate(1946,390)" d="m0 0 2 1z" fill="#FEFEFE"/>
<path transform="translate(631,385)" d="m0 0 2 1z" fill="#FEFEFE"/>
<path transform="translate(189,385)" d="m0 0 2 1z" fill="#FEFEFE"/>
<path transform="translate(636,380)" d="m0 0 2 1z" fill="#FEFEFE"/>
<path transform="translate(371,380)" d="m0 0 2 1z" fill="#FEFEFE"/>
<path transform="translate(867,377)" d="m0 0" fill="#FEFEFE"/>
<path transform="translate(836,377)" d="m0 0" fill="#FEFEFE"/>
<path transform="translate(639,377)" d="m0 0" fill="#FEFEFE"/>
<path transform="translate(374,377)" d="m0 0" fill="#FEFEFE"/>
<path transform="translate(45,377)" d="m0 0" fill="#FEFEFE"/>
<path transform="translate(106,376)" d="m0 0 2 1z" fill="#FEFEFE"/>
<path transform="translate(1544,372)" d="m0 0" fill="#FEFEFE"/>
<path transform="translate(1462,373)" d="m0 0 2 1z" fill="#FEFEFE"/>
<path transform="translate(1227,372)" d="m0 0" fill="#FEFEFE"/>
<path transform="translate(416,371)" d="m0 0" fill="#FEFEFE"/>
<path transform="translate(264,371)" d="m0 0" fill="#FEFEFE"/>
<path transform="translate(1554,370)" d="m0 0" fill="#FEFEFE"/>
<path transform="translate(1158,370)" d="m0 0" fill="#FEFEFE"/>
<path transform="translate(762,371)" d="m0 0 2 1z" fill="#FEFEFE"/>
<path transform="translate(769,368)" d="m0 0" fill="#FEFEFE"/>
<path transform="translate(625,369)" d="m0 0 2 1z" fill="#FEFEFE"/>
<path transform="translate(764,366)" d="m0 0" fill="#FEFEFE"/>
<path transform="translate(1694,365)" d="m0 0" fill="#FEFEFE"/>
<path transform="translate(512,366)" d="m0 0 2 1z" fill="#FEFEFE"/>
<path transform="translate(679,363)" d="m0 0 2 1z" fill="#FEFEFE"/>
<path transform="translate(179,362)" d="m0 0 2 1z" fill="#FEFEFE"/>
<path transform="translate(178,360)" d="m0 0" fill="#FEFEFE"/>
<path transform="translate(1009,355)" d="m0 0" fill="#FEFEFE"/>
<path transform="translate(1800,354)" d="m0 0 2 1z" fill="#FEFEFE"/>
<path transform="translate(760,353)" d="m0 0" fill="#FEFEFE"/>
<path transform="translate(126,354)" d="m0 0 2 1z" fill="#FEFEFE"/>
<path transform="translate(1797,353)" d="m0 0 2 1z" fill="#FEFEFE"/>
<path transform="translate(709,353)" d="m0 0 2 1z" fill="#FEFEFE"/>
<path transform="translate(756,351)" d="m0 0" fill="#FEFEFE"/>
<path transform="translate(262,344)" d="m0 0 2 1z" fill="#FEFEFE"/>
<path transform="translate(641,343)" d="m0 0 2 1z" fill="#FEFEFE"/>
<path transform="translate(1248,341)" d="m0 0" fill="#FEFEFE"/>
<path transform="translate(522,339)" d="m0 0 2 1z" fill="#FEFEFE"/>
<path transform="translate(1534,338)" d="m0 0 2 1z" fill="#FEFEFE"/>
<path transform="translate(437,338)" d="m0 0 2 1z" fill="#FEFEFE"/>
<path transform="translate(768,336)" d="m0 0" fill="#FEFEFE"/>
<path transform="translate(645,335)" d="m0 0" fill="#FEFEFE"/>
<path transform="translate(454,333)" d="m0 0 2 1z" fill="#FEFEFE"/>
<path transform="translate(824,332)" d="m0 0 2 1z" fill="#FEFEFE"/>
<path transform="translate(452,331)" d="m0 0" fill="#FEFEFE"/>
<path transform="translate(914,330)" d="m0 0" fill="#FEFEFE"/>
<path transform="translate(827,330)" d="m0 0" fill="#FEFEFE"/>
<path transform="translate(1674,329)" d="m0 0" fill="#FEFEFE"/>
<path transform="translate(686,329)" d="m0 0" fill="#FEFEFE"/>
<path transform="translate(1089,328)" d="m0 0 2 1z" fill="#FEFEFE"/>
<path transform="translate(885,326)" d="m0 0 2 1z" fill="#FEFEFE"/>
<path transform="translate(704,326)" d="m0 0 2 1z" fill="#FEFEFE"/>
<path transform="translate(313,326)" d="m0 0 2 1z" fill="#FEFEFE"/>
<path transform="translate(1945,322)" d="m0 0 2 1z" fill="#FEFEFE"/>
<path transform="translate(1878,322)" d="m0 0 2 1z" fill="#FEFEFE"/>
<path transform="translate(276,322)" d="m0 0 2 1z" fill="#FEFEFE"/>
<path transform="translate(1770,321)" d="m0 0 2 1z" fill="#FEFEFE"/>
<path transform="translate(754,319)" d="m0 0" fill="#FEFEFE"/>
<path transform="translate(1950,318)" d="m0 0 2 1z" fill="#FEFEFE"/>
<path transform="translate(552,316)" d="m0 0 2 1z" fill="#FEFEFE"/>
<path transform="translate(323,316)" d="m0 0 2 1z" fill="#FEFEFE"/>
<path transform="translate(1862,312)" d="m0 0 2 1z" fill="#FEFEFE"/>
<path transform="translate(1916,309)" d="m0 0" fill="#FEFEFE"/>
<path transform="translate(324,307)" d="m0 0 2 1z" fill="#FEFEFE"/>
<path transform="translate(1878,303)" d="m0 0 2 1z" fill="#FEFEFE"/>
<path transform="translate(96,303)" d="m0 0 2 1z" fill="#FEFEFE"/>
<path transform="translate(1816,302)" d="m0 0 2 1z" fill="#FEFEFE"/>
<path transform="translate(931,302)" d="m0 0 2 1z" fill="#FEFEFE"/>
<path transform="translate(1879,300)" d="m0 0 2 1z" fill="#FEFEFE"/>
<path transform="translate(1806,299)" d="m0 0" fill="#FEFEFE"/>
<path transform="translate(113,299)" d="m0 0" fill="#FEFEFE"/>
<path transform="translate(391,298)" d="m0 0 2 1z" fill="#FEFEFE"/>
<path transform="translate(112,297)" d="m0 0" fill="#FEFEFE"/>
<path transform="translate(350,296)" d="m0 0 2 1z" fill="#FEFEFE"/>
<path transform="translate(593,294)" d="m0 0" fill="#FEFEFE"/>
<path transform="translate(397,295)" d="m0 0 2 1z" fill="#FEFEFE"/>
<path transform="translate(404,293)" d="m0 0" fill="#FEFEFE"/>
<path transform="translate(400,294)" d="m0 0 2 1z" fill="#FEFEFE"/>
<path transform="translate(142,293)" d="m0 0" fill="#FEFEFE"/>
<path transform="translate(31,290)" d="m0 0" fill="#FEFEFE"/>
<path transform="translate(521,289)" d="m0 0" fill="#FEFEFE"/>
<path transform="translate(354,288)" d="m0 0" fill="#FEFEFE"/>
<path transform="translate(753,287)" d="m0 0" fill="#FEFEFE"/>
<path transform="translate(251,286)" d="m0 0 2 1z" fill="#FEFEFE"/>
<path transform="translate(403,284)" d="m0 0 2 1z" fill="#FEFEFE"/>
<path transform="translate(203,284)" d="m0 0 2 1z" fill="#FEFEFE"/>
<path transform="translate(270,282)" d="m0 0" fill="#FEFEFE"/>
<path transform="translate(407,280)" d="m0 0 2 1z" fill="#FEFEFE"/>
<path transform="translate(325,280)" d="m0 0 2 1z" fill="#FEFEFE"/>
<path transform="translate(800,277)" d="m0 0" fill="#FEFEFE"/>
<path transform="translate(511,278)" d="m0 0 2 1z" fill="#FEFEFE"/>
<path transform="translate(166,276)" d="m0 0" fill="#FEFEFE"/>
<path transform="translate(167,275)" d="m0 0 2 1z" fill="#FEFEFE"/>
<path transform="translate(167,270)" d="m0 0 2 1z" fill="#FEFEFE"/>
<path transform="translate(162,270)" d="m0 0 2 1z" fill="#FEFEFE"/>
<path transform="translate(390,269)" d="m0 0 2 1z" fill="#FEFEFE"/>
<path transform="translate(1836,265)" d="m0 0 2 1z" fill="#FEFEFE"/>
<path transform="translate(874,260)" d="m0 0" fill="#FEFEFE"/>
<path transform="translate(848,261)" d="m0 0 2 1z" fill="#FEFEFE"/>
<path transform="translate(877,257)" d="m0 0" fill="#FEFEFE"/>
<path transform="translate(727,257)" d="m0 0" fill="#FEFEFE"/>
<path transform="translate(254,257)" d="m0 0" fill="#FEFEFE"/>
<path transform="translate(1855,256)" d="m0 0" fill="#FEFEFE"/>
<path transform="translate(215,256)" d="m0 0 2 1z" fill="#FEFEFE"/>
<path transform="translate(1845,254)" d="m0 0" fill="#FEFEFE"/>
<path transform="translate(115,255)" d="m0 0 2 1z" fill="#FEFEFE"/>
<path transform="translate(494,251)" d="m0 0" fill="#FEFEFE"/>
<path transform="translate(90,250)" d="m0 0 2 1z" fill="#FEFEFE"/>
<path transform="translate(192,247)" d="m0 0" fill="#FEFEFE"/>
<path transform="translate(493,246)" d="m0 0" fill="#FEFEFE"/>
<path transform="translate(1870,241)" d="m0 0" fill="#FEFEFE"/>
<path transform="translate(506,240)" d="m0 0 2 1z" fill="#FEFEFE"/>
<path transform="translate(486,238)" d="m0 0 2 1z" fill="#FEFEFE"/>
<path transform="translate(54,238)" d="m0 0 2 1z" fill="#FEFEFE"/>
<path transform="translate(1832,233)" d="m0 0 2 1z" fill="#FEFEFE"/>
<path transform="translate(64,229)" d="m0 0 2 1z" fill="#FEFEFE"/>
<path transform="translate(1750,226)" d="m0 0" fill="#FEFEFE"/>
<path transform="translate(293,223)" d="m0 0 2 1z" fill="#FEFEFE"/>
<path transform="translate(1747,220)" d="m0 0" fill="#FEFEFE"/>
<path transform="translate(123,220)" d="m0 0" fill="#FEFEFE"/>
<path transform="translate(69,220)" d="m0 0 2 1z" fill="#FEFEFE"/>
<path transform="translate(71,219)" d="m0 0 2 1z" fill="#FEFEFE"/>
<path transform="translate(354,217)" d="m0 0 2 1z" fill="#FEFEFE"/>
<path transform="translate(205,215)" d="m0 0" fill="#FEFEFE"/>
<path transform="translate(722,214)" d="m0 0" fill="#FEFEFE"/>
<path transform="translate(656,214)" d="m0 0 2 1z" fill="#FEFEFE"/>
<path transform="translate(584,212)" d="m0 0 2 1z" fill="#FEFEFE"/>
<path transform="translate(272,212)" d="m0 0 2 1z" fill="#FEFEFE"/>
<path transform="translate(292,204)" d="m0 0" fill="#FEFEFE"/>
<path transform="translate(703,203)" d="m0 0 2 1z" fill="#FEFEFE"/>
<path transform="translate(215,203)" d="m0 0 2 1z" fill="#FEFEFE"/>
<path transform="translate(694,202)" d="m0 0 2 1z" fill="#FEFEFE"/>
<path transform="translate(648,185)" d="m0 0" fill="#FEFEFE"/>
<path transform="translate(637,185)" d="m0 0" fill="#FEFEFE"/>
<path transform="translate(251,182)" d="m0 0 2 1z" fill="#FEFEFE"/>
<path transform="translate(713,179)" d="m0 0" fill="#FEFEFE"/>
<path transform="translate(219,178)" d="m0 0" fill="#FEFEFE"/>
<path transform="translate(522,177)" d="m0 0 2 1z" fill="#FEFEFE"/>
<path transform="translate(668,176)" d="m0 0 2 1z" fill="#FEFEFE"/>
<path transform="translate(218,175)" d="m0 0" fill="#FEFEFE"/>
<path transform="translate(484,174)" d="m0 0" fill="#FEFEFE"/>
<path transform="translate(165,173)" d="m0 0" fill="#FEFEFE"/>
<path transform="translate(650,171)" d="m0 0 2 1z" fill="#FEFEFE"/>
<path transform="translate(219,170)" d="m0 0" fill="#FEFEFE"/>
<path transform="translate(155,168)" d="m0 0" fill="#FEFEFE"/>
<path transform="translate(355,167)" d="m0 0 2 1z" fill="#FEFEFE"/>
<path transform="translate(394,162)" d="m0 0" fill="#FEFEFE"/>
<path transform="translate(444,161)" d="m0 0 2 1z" fill="#FEFEFE"/>
<path transform="translate(435,161)" d="m0 0 2 1z" fill="#FEFEFE"/>
<path transform="translate(250,160)" d="m0 0" fill="#FEFEFE"/>
<path transform="translate(95,161)" d="m0 0 2 1z" fill="#FEFEFE"/>
<path transform="translate(438,160)" d="m0 0 2 1z" fill="#FEFEFE"/>
<path transform="translate(398,160)" d="m0 0 2 1z" fill="#FEFEFE"/>
<path transform="translate(442,158)" d="m0 0" fill="#FEFEFE"/>
<path transform="translate(436,159)" d="m0 0 2 1z" fill="#FEFEFE"/>
<path transform="translate(330,156)" d="m0 0 2 1z" fill="#FEFEFE"/>
<path transform="translate(328,151)" d="m0 0 2 1z" fill="#FEFEFE"/>
<path transform="translate(588,150)" d="m0 0 2 1z" fill="#FEFEFE"/>
<path transform="translate(480,147)" d="m0 0 2 1z" fill="#FEFEFE"/>
<path transform="translate(235,145)" d="m0 0 2 1z" fill="#FEFEFE"/>
<path transform="translate(709,144)" d="m0 0 2 1z" fill="#FEFEFE"/>
<path transform="translate(342,138)" d="m0 0" fill="#FEFEFE"/>
<path transform="translate(213,138)" d="m0 0" fill="#FEFEFE"/>
<path transform="translate(576,137)" d="m0 0" fill="#FEFEFE"/>
<path transform="translate(499,123)" d="m0 0 2 1z" fill="#FEFEFE"/>
<path transform="translate(782,120)" d="m0 0 2 1z" fill="#FEFEFE"/>
<path transform="translate(831,111)" d="m0 0" fill="#FEFEFE"/>
<path transform="translate(541,110)" d="m0 0 2 1z" fill="#FEFEFE"/>
<path transform="translate(522,110)" d="m0 0 2 1z" fill="#FEFEFE"/>
<path transform="translate(699,106)" d="m0 0" fill="#FEFEFE"/>
<path transform="translate(613,106)" d="m0 0" fill="#FEFEFE"/>
<path transform="translate(56,469)" d="m0 0" fill="#FEFEFE"/>
<path transform="translate(44,463)" d="m0 0" fill="#FEFEFE"/>
<path transform="translate(40,449)" d="m0 0" fill="#FEFEFE"/>
<path transform="translate(57,448)" d="m0 0" fill="#FEFEFE"/>
<path transform="translate(342,445)" d="m0 0" fill="#FEFEFE"/>
<path transform="translate(1898,443)" d="m0 0" fill="#FEFEFE"/>
<path transform="translate(1901,442)" d="m0 0" fill="#FEFEFE"/>
<path transform="translate(1892,442)" d="m0 0" fill="#FEFEFE"/>
<path transform="translate(342,442)" d="m0 0" fill="#FEFEFE"/>
<path transform="translate(1900,437)" d="m0 0" fill="#FEFEFE"/>
<path transform="translate(328,435)" d="m0 0" fill="#FEFEFE"/>
<path transform="translate(286,434)" d="m0 0" fill="#FEFEFE"/>
<path transform="translate(291,433)" d="m0 0" fill="#FEFEFE"/>
<path transform="translate(296,431)" d="m0 0" fill="#FEFEFE"/>
<path transform="translate(57,431)" d="m0 0" fill="#FEFEFE"/>
<path transform="translate(337,430)" d="m0 0" fill="#FEFEFE"/>
<path transform="translate(287,430)" d="m0 0" fill="#FEFEFE"/>
<path transform="translate(1897,428)" d="m0 0" fill="#FEFEFE"/>
<path transform="translate(1919,427)" d="m0 0" fill="#FEFEFE"/>
<path transform="translate(1933,423)" d="m0 0" fill="#FEFEFE"/>
<path transform="translate(1929,423)" d="m0 0" fill="#FEFEFE"/>
<path transform="translate(324,423)" d="m0 0" fill="#FEFEFE"/>
<path transform="translate(1941,422)" d="m0 0" fill="#FEFEFE"/>
<path transform="translate(329,422)" d="m0 0" fill="#FEFEFE"/>
<path transform="translate(371,421)" d="m0 0" fill="#FEFEFE"/>
<path transform="translate(347,421)" d="m0 0" fill="#FEFEFE"/>
<path transform="translate(333,421)" d="m0 0" fill="#FEFEFE"/>
<path transform="translate(261,420)" d="m0 0" fill="#FEFEFE"/>
<path transform="translate(1912,419)" d="m0 0" fill="#FEFEFE"/>
<path transform="translate(1916,418)" d="m0 0" fill="#FEFEFE"/>
<path transform="translate(354,418)" d="m0 0" fill="#FEFEFE"/>
<path transform="translate(333,418)" d="m0 0" fill="#FEFEFE"/>
<path transform="translate(353,417)" d="m0 0" fill="#FEFEFE"/>
<path transform="translate(348,417)" d="m0 0" fill="#FEFEFE"/>
<path transform="translate(1923,416)" d="m0 0" fill="#FEFEFE"/>
<path transform="translate(252,415)" d="m0 0" fill="#FEFEFE"/>
<path transform="translate(343,412)" d="m0 0" fill="#FEFEFE"/>
<path transform="translate(254,412)" d="m0 0" fill="#FEFEFE"/>
<path transform="translate(592,411)" d="m0 0" fill="#FEFEFE"/>
<path transform="translate(347,410)" d="m0 0" fill="#FEFEFE"/>
<path transform="translate(1944,406)" d="m0 0" fill="#FEFEFE"/>
<path transform="translate(171,404)" d="m0 0" fill="#FEFEFE"/>
<path transform="translate(170,403)" d="m0 0" fill="#FEFEFE"/>
<path transform="translate(1928,401)" d="m0 0" fill="#FEFEFE"/>
<path transform="translate(1923,401)" d="m0 0" fill="#FEFEFE"/>
<path transform="translate(175,399)" d="m0 0" fill="#FEFEFE"/>
<path transform="translate(1939,396)" d="m0 0" fill="#FEFEFE"/>
<path transform="translate(364,396)" d="m0 0" fill="#FEFEFE"/>
<path transform="translate(837,395)" d="m0 0" fill="#FEFEFE"/>
<path transform="translate(490,395)" d="m0 0" fill="#FEFEFE"/>
<path transform="translate(840,394)" d="m0 0" fill="#FEFEFE"/>
<path transform="translate(110,394)" d="m0 0" fill="#FEFEFE"/>
<path transform="translate(839,393)" d="m0 0" fill="#FEFEFE"/>
<path transform="translate(108,393)" d="m0 0" fill="#FEFEFE"/>
<path transform="translate(99,393)" d="m0 0" fill="#FEFEFE"/>
<path transform="translate(813,392)" d="m0 0" fill="#FEFEFE"/>
<path transform="translate(816,391)" d="m0 0" fill="#FEFEFE"/>
<path transform="translate(812,391)" d="m0 0" fill="#FEFEFE"/>
<path transform="translate(485,391)" d="m0 0" fill="#FEFEFE"/>
<path transform="translate(1913,390)" d="m0 0" fill="#FEFEFE"/>
<path transform="translate(456,390)" d="m0 0" fill="#FEFEFE"/>
<path transform="translate(602,389)" d="m0 0" fill="#FEFEFE"/>
<path transform="translate(186,389)" d="m0 0" fill="#FEFEFE"/>
<path transform="translate(606,388)" d="m0 0" fill="#FEFEFE"/>
<path transform="translate(277,388)" d="m0 0" fill="#FEFEFE"/>
<path transform="translate(1950,386)" d="m0 0" fill="#FEFEFE"/>
<path transform="translate(820,386)" d="m0 0" fill="#FEFEFE"/>
<path transform="translate(1903,385)" d="m0 0" fill="#FEFEFE"/>
<path transform="translate(859,385)" d="m0 0" fill="#FEFEFE"/>
<path transform="translate(21,385)" d="m0 0" fill="#FEFEFE"/>
<path transform="translate(502,384)" d="m0 0" fill="#FEFEFE"/>
<path transform="translate(499,384)" d="m0 0" fill="#FEFEFE"/>
<path transform="translate(833,382)" d="m0 0" fill="#FEFEFE"/>
<path transform="translate(836,381)" d="m0 0" fill="#FEFEFE"/>
<path transform="translate(832,381)" d="m0 0" fill="#FEFEFE"/>
<path transform="translate(503,381)" d="m0 0" fill="#FEFEFE"/>
<path transform="translate(864,380)" d="m0 0" fill="#FEFEFE"/>
<path transform="translate(838,380)" d="m0 0" fill="#FEFEFE"/>
<path transform="translate(753,379)" d="m0 0" fill="#FEFEFE"/>
<path transform="translate(617,379)" d="m0 0" fill="#FEFEFE"/>
<path transform="translate(504,379)" d="m0 0" fill="#FEFEFE"/>
<path transform="translate(152,379)" d="m0 0" fill="#FEFEFE"/>
<path transform="translate(618,377)" d="m0 0" fill="#FEFEFE"/>
<path transform="translate(840,376)" d="m0 0" fill="#FEFEFE"/>
<path transform="translate(617,376)" d="m0 0" fill="#FEFEFE"/>
<path transform="translate(442,376)" d="m0 0" fill="#FEFEFE"/>
<path transform="translate(371,376)" d="m0 0" fill="#FEFEFE"/>
<path transform="translate(152,376)" d="m0 0" fill="#FEFEFE"/>
<path transform="translate(869,375)" d="m0 0" fill="#FEFEFE"/>
<path transform="translate(784,375)" d="m0 0" fill="#FEFEFE"/>
<path transform="translate(46,375)" d="m0 0" fill="#FEFEFE"/>
<path transform="translate(787,374)" d="m0 0" fill="#FEFEFE"/>
<path transform="translate(1516,373)" d="m0 0" fill="#FEFEFE"/>
<path transform="translate(652,373)" d="m0 0" fill="#FEFEFE"/>
<path transform="translate(1916,371)" d="m0 0" fill="#FEFEFE"/>
<path transform="translate(854,371)" d="m0 0" fill="#FEFEFE"/>
<path transform="translate(473,370)" d="m0 0" fill="#FEFEFE"/>
<path transform="translate(1938,369)" d="m0 0" fill="#FEFEFE"/>
<path transform="translate(1913,369)" d="m0 0" fill="#FEFEFE"/>
<path transform="translate(425,369)" d="m0 0" fill="#FEFEFE"/>
<path transform="translate(375,369)" d="m0 0" fill="#FEFEFE"/>
<path transform="translate(360,369)" d="m0 0" fill="#FEFEFE"/>
<path transform="translate(1937,368)" d="m0 0" fill="#FEFEFE"/>
<path transform="translate(763,368)" d="m0 0" fill="#FEFEFE"/>
<path transform="translate(630,368)" d="m0 0" fill="#FEFEFE"/>
<path transform="translate(171,368)" d="m0 0" fill="#FEFEFE"/>
<path transform="translate(857,367)" d="m0 0" fill="#FEFEFE"/>
<path transform="translate(261,367)" d="m0 0" fill="#FEFEFE"/>
<path transform="translate(680,366)" d="m0 0" fill="#FEFEFE"/>
<path transform="translate(173,366)" d="m0 0" fill="#FEFEFE"/>
<path transform="translate(1922,365)" d="m0 0" fill="#FEFEFE"/>
<path transform="translate(47,365)" d="m0 0" fill="#FEFEFE"/>
<path transform="translate(701,364)" d="m0 0" fill="#FEFEFE"/>
<path transform="translate(697,364)" d="m0 0" fill="#FEFEFE"/>
<path transform="translate(694,364)" d="m0 0" fill="#FEFEFE"/>
<path transform="translate(676,364)" d="m0 0" fill="#FEFEFE"/>
<path transform="translate(487,364)" d="m0 0" fill="#FEFEFE"/>
<path transform="translate(1828,363)" d="m0 0" fill="#FEFEFE"/>
<path transform="translate(1102,363)" d="m0 0" fill="#FEFEFE"/>
<path transform="translate(1098,363)" d="m0 0" fill="#FEFEFE"/>
<path transform="translate(514,363)" d="m0 0" fill="#FEFEFE"/>
<path transform="translate(203,363)" d="m0 0" fill="#FEFEFE"/>
<path transform="translate(261,362)" d="m0 0" fill="#FEFEFE"/>
<path transform="translate(648,361)" d="m0 0" fill="#FEFEFE"/>
<path transform="translate(1070,360)" d="m0 0" fill="#FEFEFE"/>
<path transform="translate(701,360)" d="m0 0" fill="#FEFEFE"/>
<path transform="translate(487,359)" d="m0 0" fill="#FEFEFE"/>
<path transform="translate(382,359)" d="m0 0" fill="#FEFEFE"/>
<path transform="translate(179,359)" d="m0 0" fill="#FEFEFE"/>
<path transform="translate(649,358)" d="m0 0" fill="#FEFEFE"/>
<path transform="translate(490,358)" d="m0 0" fill="#FEFEFE"/>
<path transform="translate(488,358)" d="m0 0" fill="#FEFEFE"/>
<path transform="translate(1844,355)" d="m0 0" fill="#FEFEFE"/>
<path transform="translate(1760,355)" d="m0 0" fill="#FEFEFE"/>
<path transform="translate(738,355)" d="m0 0" fill="#FEFEFE"/>
<path transform="translate(710,355)" d="m0 0" fill="#FEFEFE"/>
<path transform="translate(666,355)" d="m0 0" fill="#FEFEFE"/>
<path transform="translate(1796,354)" d="m0 0" fill="#FEFEFE"/>
<path transform="translate(711,354)" d="m0 0" fill="#FEFEFE"/>
<path transform="translate(164,354)" d="m0 0" fill="#FEFEFE"/>
<path transform="translate(1850,353)" d="m0 0" fill="#FEFEFE"/>
<path transform="translate(1756,353)" d="m0 0" fill="#FEFEFE"/>
<path transform="translate(667,353)" d="m0 0" fill="#FEFEFE"/>
<path transform="translate(142,353)" d="m0 0" fill="#FEFEFE"/>
<path transform="translate(737,352)" d="m0 0" fill="#FEFEFE"/>
<path transform="translate(1878,350)" d="m0 0" fill="#FEFEFE"/>
<path transform="translate(759,350)" d="m0 0" fill="#FEFEFE"/>
<path transform="translate(497,350)" d="m0 0" fill="#FEFEFE"/>
<path transform="translate(1876,348)" d="m0 0" fill="#FEFEFE"/>
<path transform="translate(499,348)" d="m0 0" fill="#FEFEFE"/>
<path transform="translate(451,348)" d="m0 0" fill="#FEFEFE"/>
<path transform="translate(100,347)" d="m0 0" fill="#FEFEFE"/>
<path transform="translate(1857,345)" d="m0 0" fill="#FEFEFE"/>
<path transform="translate(836,345)" d="m0 0" fill="#FEFEFE"/>
<path transform="translate(609,345)" d="m0 0" fill="#FEFEFE"/>
<path transform="translate(191,345)" d="m0 0" fill="#FEFEFE"/>
<path transform="translate(960,344)" d="m0 0" fill="#FEFEFE"/>
<path transform="translate(716,344)" d="m0 0" fill="#FEFEFE"/>
<path transform="translate(634,344)" d="m0 0" fill="#FEFEFE"/>
<path transform="translate(613,344)" d="m0 0" fill="#FEFEFE"/>
<path transform="translate(608,344)" d="m0 0" fill="#FEFEFE"/>
<path transform="translate(1860,343)" d="m0 0" fill="#FEFEFE"/>
<path transform="translate(611,343)" d="m0 0" fill="#FEFEFE"/>
<path transform="translate(606,343)" d="m0 0" fill="#FEFEFE"/>
<path transform="translate(727,340)" d="m0 0" fill="#FEFEFE"/>
<path transform="translate(643,340)" d="m0 0" fill="#FEFEFE"/>
<path transform="translate(1237,339)" d="m0 0" fill="#FEFEFE"/>
<path transform="translate(1185,339)" d="m0 0" fill="#FEFEFE"/>
<path transform="translate(640,339)" d="m0 0" fill="#FEFEFE"/>
<path transform="translate(190,339)" d="m0 0" fill="#FEFEFE"/>
<path transform="translate(814,338)" d="m0 0" fill="#FEFEFE"/>
<path transform="translate(441,338)" d="m0 0" fill="#FEFEFE"/>
<path transform="translate(196,338)" d="m0 0" fill="#FEFEFE"/>
<path transform="translate(723,337)" d="m0 0" fill="#FEFEFE"/>
<path transform="translate(443,337)" d="m0 0" fill="#FEFEFE"/>
<path transform="translate(250,337)" d="m0 0" fill="#FEFEFE"/>
<path transform="translate(176,337)" d="m0 0" fill="#FEFEFE"/>
<path transform="translate(840,335)" d="m0 0" fill="#FEFEFE"/>
<path transform="translate(881,334)" d="m0 0" fill="#FEFEFE"/>
<path transform="translate(841,334)" d="m0 0" fill="#FEFEFE"/>
<path transform="translate(266,334)" d="m0 0" fill="#FEFEFE"/>
<path transform="translate(100,334)" d="m0 0" fill="#FEFEFE"/>
<path transform="translate(1906,333)" d="m0 0" fill="#FEFEFE"/>
<path transform="translate(1654,333)" d="m0 0" fill="#FEFEFE"/>
<path transform="translate(852,333)" d="m0 0" fill="#FEFEFE"/>
<path transform="translate(652,333)" d="m0 0" fill="#FEFEFE"/>
<path transform="translate(879,332)" d="m0 0" fill="#FEFEFE"/>
<path transform="translate(846,331)" d="m0 0" fill="#FEFEFE"/>
<path transform="translate(911,329)" d="m0 0" fill="#FEFEFE"/>
<path transform="translate(877,329)" d="m0 0" fill="#FEFEFE"/>
<path transform="translate(822,329)" d="m0 0" fill="#FEFEFE"/>
<path transform="translate(828,328)" d="m0 0" fill="#FEFEFE"/>
<path transform="translate(824,328)" d="m0 0" fill="#FEFEFE"/>
<path transform="translate(104,327)" d="m0 0" fill="#FEFEFE"/>
<path transform="translate(681,326)" d="m0 0" fill="#FEFEFE"/>
<path transform="translate(531,326)" d="m0 0" fill="#FEFEFE"/>
<path transform="translate(827,323)" d="m0 0" fill="#FEFEFE"/>
<path transform="translate(220,323)" d="m0 0" fill="#FEFEFE"/>
<path transform="translate(201,323)" d="m0 0" fill="#FEFEFE"/>
<path transform="translate(140,323)" d="m0 0" fill="#FEFEFE"/>
<path transform="translate(825,322)" d="m0 0" fill="#FEFEFE"/>
<path transform="translate(754,322)" d="m0 0" fill="#FEFEFE"/>
<path transform="translate(530,322)" d="m0 0" fill="#FEFEFE"/>
<path transform="translate(430,322)" d="m0 0" fill="#FEFEFE"/>
<path transform="translate(312,322)" d="m0 0" fill="#FEFEFE"/>
<path transform="translate(141,322)" d="m0 0" fill="#FEFEFE"/>
<path transform="translate(33,322)" d="m0 0" fill="#FEFEFE"/>
<path transform="translate(608,321)" d="m0 0" fill="#FEFEFE"/>
<path transform="translate(274,321)" d="m0 0" fill="#FEFEFE"/>
<path transform="translate(197,321)" d="m0 0" fill="#FEFEFE"/>
<path transform="translate(164,321)" d="m0 0" fill="#FEFEFE"/>
<path transform="translate(20,321)" d="m0 0" fill="#FEFEFE"/>
<path transform="translate(1852,320)" d="m0 0" fill="#FEFEFE"/>
<path transform="translate(258,319)" d="m0 0" fill="#FEFEFE"/>
<path transform="translate(1010,318)" d="m0 0" fill="#FEFEFE"/>
<path transform="translate(759,318)" d="m0 0" fill="#FEFEFE"/>
<path transform="translate(259,318)" d="m0 0" fill="#FEFEFE"/>
<path transform="translate(164,318)" d="m0 0" fill="#FEFEFE"/>
<path transform="translate(549,315)" d="m0 0" fill="#FEFEFE"/>
<path transform="translate(359,313)" d="m0 0" fill="#FEFEFE"/>
<path transform="translate(58,313)" d="m0 0" fill="#FEFEFE"/>
<path transform="translate(977,312)" d="m0 0" fill="#FEFEFE"/>
<path transform="translate(738,312)" d="m0 0" fill="#FEFEFE"/>
<path transform="translate(1935,309)" d="m0 0" fill="#FEFEFE"/>
<path transform="translate(1893,308)" d="m0 0" fill="#FEFEFE"/>
<path transform="translate(1864,308)" d="m0 0" fill="#FEFEFE"/>
<path transform="translate(1795,308)" d="m0 0" fill="#FEFEFE"/>
<path transform="translate(275,308)" d="m0 0" fill="#FEFEFE"/>
<path transform="translate(269,308)" d="m0 0" fill="#FEFEFE"/>
<path transform="translate(1877,307)" d="m0 0" fill="#FEFEFE"/>
<path transform="translate(497,307)" d="m0 0" fill="#FEFEFE"/>
<path transform="translate(358,307)" d="m0 0" fill="#FEFEFE"/>
<path transform="translate(274,307)" d="m0 0" fill="#FEFEFE"/>
<path transform="translate(271,307)" d="m0 0" fill="#FEFEFE"/>
<path transform="translate(1816,306)" d="m0 0" fill="#FEFEFE"/>
<path transform="translate(21,306)" d="m0 0" fill="#FEFEFE"/>
<path transform="translate(1896,303)" d="m0 0" fill="#FEFEFE"/>
<path transform="translate(125,302)" d="m0 0" fill="#FEFEFE"/>
<path transform="translate(1878,301)" d="m0 0" fill="#FEFEFE"/>
<path transform="translate(796,301)" d="m0 0" fill="#FEFEFE"/>
<path transform="translate(624,301)" d="m0 0" fill="#FEFEFE"/>
<path transform="translate(389,301)" d="m0 0" fill="#FEFEFE"/>
<path transform="translate(1911,298)" d="m0 0" fill="#FEFEFE"/>
<path transform="translate(1803,298)" d="m0 0" fill="#FEFEFE"/>
<path transform="translate(795,297)" d="m0 0" fill="#FEFEFE"/>
<path transform="translate(1804,296)" d="m0 0" fill="#FEFEFE"/>
<path transform="translate(399,296)" d="m0 0" fill="#FEFEFE"/>
<path transform="translate(141,296)" d="m0 0" fill="#FEFEFE"/>
<path transform="translate(586,295)" d="m0 0" fill="#FEFEFE"/>
<path transform="translate(145,295)" d="m0 0" fill="#FEFEFE"/>
<path transform="translate(1934,293)" d="m0 0" fill="#FEFEFE"/>
<path transform="translate(563,292)" d="m0 0" fill="#FEFEFE"/>
<path transform="translate(122,291)" d="m0 0" fill="#FEFEFE"/>
<path transform="translate(903,290)" d="m0 0" fill="#FEFEFE"/>
<path transform="translate(635,290)" d="m0 0" fill="#FEFEFE"/>
<path transform="translate(544,290)" d="m0 0" fill="#FEFEFE"/>
<path transform="translate(534,290)" d="m0 0" fill="#FEFEFE"/>
<path transform="translate(124,290)" d="m0 0" fill="#FEFEFE"/>
<path transform="translate(902,289)" d="m0 0" fill="#FEFEFE"/>
<path transform="translate(588,289)" d="m0 0" fill="#FEFEFE"/>
<path transform="translate(549,289)" d="m0 0" fill="#FEFEFE"/>
<path transform="translate(896,288)" d="m0 0" fill="#FEFEFE"/>
<path transform="translate(520,287)" d="m0 0" fill="#FEFEFE"/>
<path transform="translate(402,287)" d="m0 0" fill="#FEFEFE"/>
<path transform="translate(232,287)" d="m0 0" fill="#FEFEFE"/>
<path transform="translate(587,286)" d="m0 0" fill="#FEFEFE"/>
<path transform="translate(414,286)" d="m0 0" fill="#FEFEFE"/>
<path transform="translate(401,286)" d="m0 0" fill="#FEFEFE"/>
<path transform="translate(281,286)" d="m0 0" fill="#FEFEFE"/>
<path transform="translate(562,285)" d="m0 0" fill="#FEFEFE"/>
<path transform="translate(441,285)" d="m0 0" fill="#FEFEFE"/>
<path transform="translate(410,285)" d="m0 0" fill="#FEFEFE"/>
<path transform="translate(271,285)" d="m0 0" fill="#FEFEFE"/>
<path transform="translate(268,285)" d="m0 0" fill="#FEFEFE"/>
<path transform="translate(165,285)" d="m0 0" fill="#FEFEFE"/>
<path transform="translate(157,285)" d="m0 0" fill="#FEFEFE"/>
<path transform="translate(39,285)" d="m0 0" fill="#FEFEFE"/>
<path transform="translate(301,284)" d="m0 0" fill="#FEFEFE"/>
<path transform="translate(889,283)" d="m0 0" fill="#FEFEFE"/>
<path transform="translate(324,283)" d="m0 0" fill="#FEFEFE"/>
<path transform="translate(505,282)" d="m0 0" fill="#FEFEFE"/>
<path transform="translate(412,282)" d="m0 0" fill="#FEFEFE"/>
<path transform="translate(281,282)" d="m0 0" fill="#FEFEFE"/>
<path transform="translate(137,282)" d="m0 0" fill="#FEFEFE"/>
<path transform="translate(799,281)" d="m0 0" fill="#FEFEFE"/>
<path transform="translate(410,281)" d="m0 0" fill="#FEFEFE"/>
<path transform="translate(406,281)" d="m0 0" fill="#FEFEFE"/>
<path transform="translate(321,281)" d="m0 0" fill="#FEFEFE"/>
<path transform="translate(206,281)" d="m0 0" fill="#FEFEFE"/>
<path transform="translate(31,281)" d="m0 0" fill="#FEFEFE"/>
<path transform="translate(810,280)" d="m0 0" fill="#FEFEFE"/>
<path transform="translate(648,280)" d="m0 0" fill="#FEFEFE"/>
<path transform="translate(883,279)" d="m0 0" fill="#FEFEFE"/>
<path transform="translate(513,279)" d="m0 0" fill="#FEFEFE"/>
<path transform="translate(323,279)" d="m0 0" fill="#FEFEFE"/>
<path transform="translate(320,279)" d="m0 0" fill="#FEFEFE"/>
<path transform="translate(207,279)" d="m0 0" fill="#FEFEFE"/>
<path transform="translate(141,279)" d="m0 0" fill="#FEFEFE"/>
<path transform="translate(648,277)" d="m0 0" fill="#FEFEFE"/>
<path transform="translate(150,277)" d="m0 0" fill="#FEFEFE"/>
<path transform="translate(810,275)" d="m0 0" fill="#FEFEFE"/>
<path transform="translate(730,275)" d="m0 0" fill="#FEFEFE"/>
<path transform="translate(655,274)" d="m0 0" fill="#FEFEFE"/>
<path transform="translate(602,272)" d="m0 0" fill="#FEFEFE"/>
<path transform="translate(167,272)" d="m0 0" fill="#FEFEFE"/>
<path transform="translate(389,271)" d="m0 0" fill="#FEFEFE"/>
<path transform="translate(165,271)" d="m0 0" fill="#FEFEFE"/>
<path transform="translate(394,270)" d="m0 0" fill="#FEFEFE"/>
<path transform="translate(388,270)" d="m0 0" fill="#FEFEFE"/>
<path transform="translate(150,270)" d="m0 0" fill="#FEFEFE"/>
<path transform="translate(155,269)" d="m0 0" fill="#FEFEFE"/>
<path transform="translate(1924,266)" d="m0 0" fill="#FEFEFE"/>
<path transform="translate(567,266)" d="m0 0" fill="#FEFEFE"/>
<path transform="translate(87,266)" d="m0 0" fill="#FEFEFE"/>
<path transform="translate(1922,265)" d="m0 0" fill="#FEFEFE"/>
<path transform="translate(1840,265)" d="m0 0" fill="#FEFEFE"/>
<path transform="translate(843,265)" d="m0 0" fill="#FEFEFE"/>
<path transform="translate(803,265)" d="m0 0" fill="#FEFEFE"/>
<path transform="translate(487,265)" d="m0 0" fill="#FEFEFE"/>
<path transform="translate(198,265)" d="m0 0" fill="#FEFEFE"/>
<path transform="translate(732,264)" d="m0 0" fill="#FEFEFE"/>
<path transform="translate(193,264)" d="m0 0" fill="#FEFEFE"/>
<path transform="translate(1924,262)" d="m0 0" fill="#FEFEFE"/>
<path transform="translate(846,262)" d="m0 0" fill="#FEFEFE"/>
<path transform="translate(1847,261)" d="m0 0" fill="#FEFEFE"/>
<path transform="translate(852,261)" d="m0 0" fill="#FEFEFE"/>
<path transform="translate(732,261)" d="m0 0" fill="#FEFEFE"/>
<path transform="translate(869,260)" d="m0 0" fill="#FEFEFE"/>
<path transform="translate(842,260)" d="m0 0" fill="#FEFEFE"/>
<path transform="translate(514,259)" d="m0 0" fill="#FEFEFE"/>
<path transform="translate(1912,257)" d="m0 0" fill="#FEFEFE"/>
<path transform="translate(1835,257)" d="m0 0" fill="#FEFEFE"/>
<path transform="translate(1910,256)" d="m0 0" fill="#FEFEFE"/>
<path transform="translate(97,256)" d="m0 0" fill="#FEFEFE"/>
<path transform="translate(41,256)" d="m0 0" fill="#FEFEFE"/>
<path transform="translate(295,255)" d="m0 0" fill="#FEFEFE"/>
<path transform="translate(183,255)" d="m0 0" fill="#FEFEFE"/>
<path transform="translate(182,254)" d="m0 0" fill="#FEFEFE"/>
<path transform="translate(123,254)" d="m0 0" fill="#FEFEFE"/>
<path transform="translate(44,253)" d="m0 0" fill="#FEFEFE"/>
<path transform="translate(1861,252)" d="m0 0" fill="#FEFEFE"/>
<path transform="translate(128,252)" d="m0 0" fill="#FEFEFE"/>
<path transform="translate(1846,251)" d="m0 0" fill="#FEFEFE"/>
<path transform="translate(1844,250)" d="m0 0" fill="#FEFEFE"/>
<path transform="translate(772,250)" d="m0 0" fill="#FEFEFE"/>
<path transform="translate(769,250)" d="m0 0" fill="#FEFEFE"/>
<path transform="translate(182,250)" d="m0 0" fill="#FEFEFE"/>
<path transform="translate(204,249)" d="m0 0" fill="#FEFEFE"/>
<path transform="translate(184,249)" d="m0 0" fill="#FEFEFE"/>
<path transform="translate(1946,248)" d="m0 0" fill="#FEFEFE"/>
<path transform="translate(1870,248)" d="m0 0" fill="#FEFEFE"/>
<path transform="translate(190,248)" d="m0 0" fill="#FEFEFE"/>
<path transform="translate(68,248)" d="m0 0" fill="#FEFEFE"/>
<path transform="translate(42,248)" d="m0 0" fill="#FEFEFE"/>
<path transform="translate(72,247)" d="m0 0" fill="#FEFEFE"/>
<path transform="translate(1871,244)" d="m0 0" fill="#FEFEFE"/>
<path transform="translate(136,244)" d="m0 0" fill="#FEFEFE"/>
<path transform="translate(73,244)" d="m0 0" fill="#FEFEFE"/>
<path transform="translate(197,243)" d="m0 0" fill="#FEFEFE"/>
<path transform="translate(1896,240)" d="m0 0" fill="#FEFEFE"/>
<path transform="translate(1840,240)" d="m0 0" fill="#FEFEFE"/>
<path transform="translate(1834,240)" d="m0 0" fill="#FEFEFE"/>
<path transform="translate(510,240)" d="m0 0" fill="#FEFEFE"/>
<path transform="translate(494,240)" d="m0 0" fill="#FEFEFE"/>
<path transform="translate(485,240)" d="m0 0" fill="#FEFEFE"/>
<path transform="translate(1939,239)" d="m0 0" fill="#FEFEFE"/>
<path transform="translate(1864,239)" d="m0 0" fill="#FEFEFE"/>
<path transform="translate(146,239)" d="m0 0" fill="#FEFEFE"/>
<path transform="translate(572,237)" d="m0 0" fill="#FEFEFE"/>
<path transform="translate(1833,235)" d="m0 0" fill="#FEFEFE"/>
<path transform="translate(156,235)" d="m0 0" fill="#FEFEFE"/>
<path transform="translate(151,235)" d="m0 0" fill="#FEFEFE"/>
<path transform="translate(448,231)" d="m0 0" fill="#FEFEFE"/>
<path transform="translate(1833,230)" d="m0 0" fill="#FEFEFE"/>
<path transform="translate(407,230)" d="m0 0" fill="#FEFEFE"/>
<path transform="translate(410,229)" d="m0 0" fill="#FEFEFE"/>
<path transform="translate(451,228)" d="m0 0" fill="#FEFEFE"/>
<path transform="translate(111,228)" d="m0 0" fill="#FEFEFE"/>
<path transform="translate(62,228)" d="m0 0" fill="#FEFEFE"/>
<path transform="translate(108,226)" d="m0 0" fill="#FEFEFE"/>
<path transform="translate(1844,225)" d="m0 0" fill="#FEFEFE"/>
<path transform="translate(443,225)" d="m0 0" fill="#FEFEFE"/>
<path transform="translate(1861,223)" d="m0 0" fill="#FEFEFE"/>
<path transform="translate(104,223)" d="m0 0" fill="#FEFEFE"/>
<path transform="translate(178,222)" d="m0 0" fill="#FEFEFE"/>
<path transform="translate(130,220)" d="m0 0" fill="#FEFEFE"/>
<path transform="translate(1898,218)" d="m0 0" fill="#FEFEFE"/>
<path transform="translate(586,218)" d="m0 0" fill="#FEFEFE"/>
<path transform="translate(1929,217)" d="m0 0" fill="#FEFEFE"/>
<path transform="translate(1893,217)" d="m0 0" fill="#FEFEFE"/>
<path transform="translate(662,217)" d="m0 0" fill="#FEFEFE"/>
<path transform="translate(659,217)" d="m0 0" fill="#FEFEFE"/>
<path transform="translate(140,215)" d="m0 0" fill="#FEFEFE"/>
<path transform="translate(663,214)" d="m0 0" fill="#FEFEFE"/>
<path transform="translate(352,214)" d="m0 0" fill="#FEFEFE"/>
<path transform="translate(142,213)" d="m0 0" fill="#FEFEFE"/>
<path transform="translate(466,212)" d="m0 0" fill="#FEFEFE"/>
<path transform="translate(462,212)" d="m0 0" fill="#FEFEFE"/>
<path transform="translate(145,212)" d="m0 0" fill="#FEFEFE"/>
<path transform="translate(1919,209)" d="m0 0" fill="#FEFEFE"/>
<path transform="translate(420,208)" d="m0 0" fill="#FEFEFE"/>
<path transform="translate(152,207)" d="m0 0" fill="#FEFEFE"/>
<path transform="translate(231,206)" d="m0 0" fill="#FEFEFE"/>
<path transform="translate(694,205)" d="m0 0" fill="#FEFEFE"/>
<path transform="translate(139,203)" d="m0 0" fill="#FEFEFE"/>
<path transform="translate(438,202)" d="m0 0" fill="#FEFEFE"/>
<path transform="translate(213,202)" d="m0 0" fill="#FEFEFE"/>
<path transform="translate(663,201)" d="m0 0" fill="#FEFEFE"/>
<path transform="translate(1911,199)" d="m0 0" fill="#FEFEFE"/>
<path transform="translate(1903,199)" d="m0 0" fill="#FEFEFE"/>
<path transform="translate(437,199)" d="m0 0" fill="#FEFEFE"/>
<path transform="translate(796,198)" d="m0 0" fill="#FEFEFE"/>
<path transform="translate(768,198)" d="m0 0" fill="#FEFEFE"/>
<path transform="translate(728,196)" d="m0 0" fill="#FEFEFE"/>
<path transform="translate(447,196)" d="m0 0" fill="#FEFEFE"/>
<path transform="translate(416,196)" d="m0 0" fill="#FEFEFE"/>
<path transform="translate(217,196)" d="m0 0" fill="#FEFEFE"/>
<path transform="translate(47,196)" d="m0 0" fill="#FEFEFE"/>
<path transform="translate(729,195)" d="m0 0" fill="#FEFEFE"/>
<path transform="translate(730,194)" d="m0 0" fill="#FEFEFE"/>
<path transform="translate(32,194)" d="m0 0" fill="#FEFEFE"/>
<path transform="translate(816,193)" d="m0 0" fill="#FEFEFE"/>
<path transform="translate(731,192)" d="m0 0" fill="#FEFEFE"/>
<path transform="translate(46,192)" d="m0 0" fill="#FEFEFE"/>
<path transform="translate(32,192)" d="m0 0" fill="#FEFEFE"/>
<path transform="translate(33,191)" d="m0 0" fill="#FEFEFE"/>
<path transform="translate(34,190)" d="m0 0" fill="#FEFEFE"/>
<path transform="translate(270,188)" d="m0 0" fill="#FEFEFE"/>
<path transform="translate(705,187)" d="m0 0" fill="#FEFEFE"/>
<path transform="translate(582,187)" d="m0 0" fill="#FEFEFE"/>
<path transform="translate(569,187)" d="m0 0" fill="#FEFEFE"/>
<path transform="translate(645,186)" d="m0 0" fill="#FEFEFE"/>
<path transform="translate(643,186)" d="m0 0" fill="#FEFEFE"/>
<path transform="translate(719,184)" d="m0 0" fill="#FEFEFE"/>
<path transform="translate(347,184)" d="m0 0" fill="#FEFEFE"/>
<path transform="translate(41,184)" d="m0 0" fill="#FEFEFE"/>
<path transform="translate(717,183)" d="m0 0" fill="#FEFEFE"/>
<path transform="translate(647,183)" d="m0 0" fill="#FEFEFE"/>
<path transform="translate(643,183)" d="m0 0" fill="#FEFEFE"/>
<path transform="translate(581,183)" d="m0 0" fill="#FEFEFE"/>
<path transform="translate(56,182)" d="m0 0" fill="#FEFEFE"/>
<path transform="translate(347,181)" d="m0 0" fill="#FEFEFE"/>
<path transform="translate(719,180)" d="m0 0" fill="#FEFEFE"/>
<path transform="translate(201,180)" d="m0 0" fill="#FEFEFE"/>
<path transform="translate(198,180)" d="m0 0" fill="#FEFEFE"/>
<path transform="translate(716,179)" d="m0 0" fill="#FEFEFE"/>
<path transform="translate(655,178)" d="m0 0" fill="#FEFEFE"/>
<path transform="translate(40,178)" d="m0 0" fill="#FEFEFE"/>
<path transform="translate(702,177)" d="m0 0" fill="#FEFEFE"/>
<path transform="translate(670,177)" d="m0 0" fill="#FEFEFE"/>
<path transform="translate(667,177)" d="m0 0" fill="#FEFEFE"/>
<path transform="translate(628,177)" d="m0 0" fill="#FEFEFE"/>
<path transform="translate(342,177)" d="m0 0" fill="#FEFEFE"/>
<path transform="translate(251,177)" d="m0 0" fill="#FEFEFE"/>
<path transform="translate(33,177)" d="m0 0" fill="#FEFEFE"/>
<path transform="translate(630,176)" d="m0 0" fill="#FEFEFE"/>
<path transform="translate(599,175)" d="m0 0" fill="#FEFEFE"/>
<path transform="translate(495,174)" d="m0 0" fill="#FEFEFE"/>
<path transform="translate(256,174)" d="m0 0" fill="#FEFEFE"/>
<path transform="translate(219,174)" d="m0 0" fill="#FEFEFE"/>
<path transform="translate(696,173)" d="m0 0" fill="#FEFEFE"/>
<path transform="translate(571,172)" d="m0 0" fill="#FEFEFE"/>
<path transform="translate(507,172)" d="m0 0" fill="#FEFEFE"/>
<path transform="translate(285,172)" d="m0 0" fill="#FEFEFE"/>
<path transform="translate(254,172)" d="m0 0" fill="#FEFEFE"/>
<path transform="translate(36,172)" d="m0 0" fill="#FEFEFE"/>
<path transform="translate(256,171)" d="m0 0" fill="#FEFEFE"/>
<path transform="translate(151,171)" d="m0 0" fill="#FEFEFE"/>
<path transform="translate(723,170)" d="m0 0" fill="#FEFEFE"/>
<path transform="translate(681,167)" d="m0 0" fill="#FEFEFE"/>
<path transform="translate(572,167)" d="m0 0" fill="#FEFEFE"/>
<path transform="translate(352,167)" d="m0 0" fill="#FEFEFE"/>
<path transform="translate(337,166)" d="m0 0" fill="#FEFEFE"/>
<path transform="translate(58,166)" d="m0 0" fill="#FEFEFE"/>
<path transform="translate(529,165)" d="m0 0" fill="#FEFEFE"/>
<path transform="translate(526,165)" d="m0 0" fill="#FEFEFE"/>
<path transform="translate(396,164)" d="m0 0" fill="#FEFEFE"/>
<path transform="translate(89,164)" d="m0 0" fill="#FEFEFE"/>
<path transform="translate(397,163)" d="m0 0" fill="#FEFEFE"/>
<path transform="translate(593,162)" d="m0 0" fill="#FEFEFE"/>
<path transform="translate(350,162)" d="m0 0" fill="#FEFEFE"/>
<path transform="translate(210,162)" d="m0 0" fill="#FEFEFE"/>
<path transform="translate(137,162)" d="m0 0" fill="#FEFEFE"/>
<path transform="translate(643,161)" d="m0 0" fill="#FEFEFE"/>
<path transform="translate(441,161)" d="m0 0" fill="#FEFEFE"/>
<path transform="translate(30,161)" d="m0 0" fill="#FEFEFE"/>
<path transform="translate(634,160)" d="m0 0" fill="#FEFEFE"/>
<path transform="translate(431,160)" d="m0 0" fill="#FEFEFE"/>
<path transform="translate(280,159)" d="m0 0" fill="#FEFEFE"/>
<path transform="translate(592,156)" d="m0 0" fill="#FEFEFE"/>
<path transform="translate(328,156)" d="m0 0" fill="#FEFEFE"/>
<path transform="translate(161,156)" d="m0 0" fill="#FEFEFE"/>
<path transform="translate(165,155)" d="m0 0" fill="#FEFEFE"/>
<path transform="translate(244,154)" d="m0 0" fill="#FEFEFE"/>
<path transform="translate(164,154)" d="m0 0" fill="#FEFEFE"/>
<path transform="translate(552,151)" d="m0 0" fill="#FEFEFE"/>
<path transform="translate(546,150)" d="m0 0" fill="#FEFEFE"/>
<path transform="translate(245,150)" d="m0 0" fill="#FEFEFE"/>
<path transform="translate(549,149)" d="m0 0" fill="#FEFEFE"/>
<path transform="translate(701,147)" d="m0 0" fill="#FEFEFE"/>
<path transform="translate(478,146)" d="m0 0" fill="#FEFEFE"/>
<path transform="translate(588,142)" d="m0 0" fill="#FEFEFE"/>
<path transform="translate(339,142)" d="m0 0" fill="#FEFEFE"/>
<path transform="translate(228,142)" d="m0 0" fill="#FEFEFE"/>
<path transform="translate(543,141)" d="m0 0" fill="#FEFEFE"/>
<path transform="translate(540,141)" d="m0 0" fill="#FEFEFE"/>
<path transform="translate(477,139)" d="m0 0" fill="#FEFEFE"/>
<path transform="translate(501,136)" d="m0 0" fill="#FEFEFE"/>
<path transform="translate(497,136)" d="m0 0" fill="#FEFEFE"/>
<path transform="translate(502,135)" d="m0 0" fill="#FEFEFE"/>
<path transform="translate(543,134)" d="m0 0" fill="#FEFEFE"/>
<path transform="translate(503,132)" d="m0 0" fill="#FEFEFE"/>
<path transform="translate(178,131)" d="m0 0" fill="#FEFEFE"/>
<path transform="translate(485,130)" d="m0 0" fill="#FEFEFE"/>
<path transform="translate(268,130)" d="m0 0" fill="#FEFEFE"/>
<path transform="translate(531,129)" d="m0 0" fill="#FEFEFE"/>
<path transform="translate(774,128)" d="m0 0" fill="#FEFEFE"/>
<path transform="translate(512,126)" d="m0 0" fill="#FEFEFE"/>
<path transform="translate(275,125)" d="m0 0" fill="#FEFEFE"/>
<path transform="translate(269,125)" d="m0 0" fill="#FEFEFE"/>
<path transform="translate(188,125)" d="m0 0" fill="#FEFEFE"/>
<path transform="translate(497,124)" d="m0 0" fill="#FEFEFE"/>
<path transform="translate(524,123)" d="m0 0" fill="#FEFEFE"/>
<path transform="translate(535,121)" d="m0 0" fill="#FEFEFE"/>
<path transform="translate(502,120)" d="m0 0" fill="#FEFEFE"/>
<path transform="translate(499,119)" d="m0 0" fill="#FEFEFE"/>
<path transform="translate(220,119)" d="m0 0" fill="#FEFEFE"/>
<path transform="translate(566,118)" d="m0 0" fill="#FEFEFE"/>
<path transform="translate(536,116)" d="m0 0" fill="#FEFEFE"/>
<path transform="translate(685,115)" d="m0 0" fill="#FEFEFE"/>
<path transform="translate(572,115)" d="m0 0" fill="#FEFEFE"/>
<path transform="translate(796,114)" d="m0 0" fill="#FEFEFE"/>
<path transform="translate(791,114)" d="m0 0" fill="#FEFEFE"/>
<path transform="translate(566,113)" d="m0 0" fill="#FEFEFE"/>
<path transform="translate(540,113)" d="m0 0" fill="#FEFEFE"/>
<path transform="translate(516,110)" d="m0 0" fill="#FEFEFE"/>
<path transform="translate(520,109)" d="m0 0" fill="#FEFEFE"/>
<path transform="translate(685,108)" d="m0 0" fill="#FEFEFE"/>
<path transform="translate(804,107)" d="m0 0" fill="#FEFEFE"/>
<path transform="translate(830,104)" d="m0 0" fill="#FEFEFE"/>
<path transform="translate(828,100)" d="m0 0" fill="#FEFEFE"/>
<path transform="translate(814,100)" d="m0 0" fill="#FEFEFE"/>
<path transform="translate(827,99)" d="m0 0" fill="#FEFEFE"/>
<path transform="translate(617,98)" d="m0 0" fill="#FEFEFE"/>
<path transform="translate(592,91)" d="m0 0" fill="#FEFEFE"/>
<path transform="translate(586,89)" d="m0 0" fill="#FEFEFE"/>
<path transform="translate(622,88)" d="m0 0" fill="#FEFEFE"/>
<path transform="translate(618,87)" d="m0 0" fill="#FEFEFE"/>
<path transform="translate(597,84)" d="m0 0" fill="#FEFEFE"/>
<path transform="translate(617,83)" d="m0 0" fill="#FEFEFE"/>
<path transform="translate(599,83)" d="m0 0" fill="#FEFEFE"/>
<path transform="translate(594,82)" d="m0 0" fill="#FEFEFE"/>
<path transform="translate(597,81)" d="m0 0" fill="#FEFEFE"/>
</svg>
