<?xml version="1.0" encoding="UTF-8"?>
<svg version="1.1" viewBox="0 0 2048 1687" width="1280" height="1280" xmlns="http://www.w3.org/2000/svg">
<path transform="translate(1034,80)" d="m0 0 47 1 31 2 39 4 40 6 37 7 38 9 41 12 36 12 31 12 26 11 28 13 32 16 23 13 30 18 36 24 17 12 17 13 14 11 11 9 13 11 11 10 8 7 10 9 7 7 2 1v2l4 2 18 18 7 8 8 8 7 8 9 10 12 14 9 11 11 14 10 13 13 18 12 17 11 17 15 24 11 19 13 24 11 21 13 28 11 25 14 36 12 35 14 49 9 40 6 31 6 41 4 41 2 38v60l-2 38-4 41-7 47-8 40-11 44-11 36-2 9 11 12 11 16 8 15 5 15 2 13v14l-2 14-5 15-9 17-10 13-9 11h-2l-2 4-11 10-14 11-15 11-21 13-22 12-16 8-26 12-27 11-39 14-38 12-43 12-49 12-63 13-46 8-53 8-56 7-48 5-47 4-64 4-42 2-34 1-84 1-66-1-56-2-55-3-54-4-54-5-61-7-50-7-55-9-49-9-55-12-52-13-48-14-37-12-40-15-30-13-33-16-23-13-14-9-14-10-9-7-14-12-11-11-11-14-9-15-6-15-3-15v-17l3-15 6-15 8-14 9-11 9-10 10-10 11-9 12-9-2-10-11-41-8-37-6-34-6-44-3-36-2-47v-27l2-45 2-25 4-36 7-43 7-35 12-47 11-35 11-32 15-37 18-40 11-22 13-23 11-20 13-21 11-17 13-19 13-18 13-17 11-14 9-11 13-15 10-11 7-8 14-15 30-30 8-7 13-12 8-7 13-11 10-8 14-11 21-16 16-11 30-20 18-11 15-9 25-14 19-10 23-11 31-14 33-13 34-12 32-10 42-11 37-8 42-7 43-5 43-3zm-661 1065-38 13-37 15-33 15-2 2 5-1 28-12 21-8 40-14 15-5 2-5z" fill="#FDE29D"/>
<path transform="translate(309,790)" d="m0 0h1v8l11 3 45 16 152 54 53 19 37 13 98 35 39 14 111 42 190 72 5 2 8-1 10-4 12-5 12-4 9-4 12-4 9-4 11-4 9-3 8-3 12-5 12-4 9-4 12-4 9-4 12-4 12-5 12-4 9-4 16-6 17-6 16-6 9-4 20-7 9-4 12-4 9-4 15-5 7-3 10-3 7-3 18-6 10-4 10-3 7-3 24-8 7-3 24-8 8-3 13-5 17-6 18-6 10-4 21-7 8-3 13-5 10-3 7-3 21-7 7-3 24-8 7-3 11-4 13-4 7-3 10-3 8-3 14-5 10-4 10-3 7-3 13-4 8-3 5-1 1-7 5 5 3 6-1 7-4 5-14 6-4 2 9 11 12 14 14 40 4 11v3l-74 27-29 10-50 18-136 49-23 8-41 15-26 9 26 10 26 9 21 8 23 8 91 33 99 36 1 1 3 25 31 13 26 12 20 10 27 16 16 11 13 10 14 12 10 10 9 11 9 13 8 15 5 15 2 13v14l-2 14-5 15-9 17-10 13-9 11h-2l-2 4-11 10-14 11-15 11-21 13-22 12-16 8-26 12-27 11-39 14-38 12-43 12-49 12-63 13-46 8-53 8-56 7-48 5-47 4-64 4-42 2-34 1-84 1-66-1-56-2-55-3-54-4-54-5-61-7-50-7-55-9-49-9-55-12-52-13-48-14-37-12-40-15-30-13-33-16-23-13-14-9-14-10-9-7-14-12-11-11-11-14-9-15-6-15-3-15v-17l3-15 6-15 8-14 9-11 9-10 10-10 11-9 13-10 15-10 24-14 27-14 8-4 17-7 32-13 25-9 38-13 6-8 149-54 61-22 35-13 23-8 5-1v-2l-11-3-100-36-30-11-23-8-28-10-64-23-30-11-29-10-77-28 1-6 12-33 5-15 31-31-6-7-1-8 4-6z" fill="#DBE6FB"/>
<path transform="translate(309,790)" d="m0 0h1v8l11 3 45 16 152 54 53 19 37 13 98 35 39 14 111 42 190 72 5 2 8-1 10-4 12-5 12-4 9-4 12-4 9-4 11-4 9-3 8-3 12-5 12-4 9-4 12-4 9-4 12-4 12-5 12-4 9-4 16-6 17-6 16-6 9-4 20-7 9-4 12-4 9-4 15-5 7-3 10-3 7-3 18-6 10-4 10-3 7-3 24-8 7-3 24-8 8-3 13-5 17-6 18-6 10-4 21-7 8-3 13-5 10-3 7-3 21-7 7-3 24-8 7-3 11-4 13-4 7-3 10-3 8-3 14-5 10-4 10-3 7-3 13-4 8-3 5-1 1-7 5 5 3 6-1 7-4 5-14 6-4 2 9 11 12 14 14 40 4 11v3l-74 27-29 10-50 18-136 49-23 8-41 15-26 9 26 10 26 9 21 8 23 8 91 33 99 36 1 1 5 43v48l-11-7-14-9-16-8-20-8-18-5-15-3-9-1h-23l-16 3-13 5-11 7-7 8 1 6 10 16 9 10 5 6 8 7 14 11 18 11 16 8 17 7 20 6 16 3 13 1h14l16-2 15-5 12-7 8-9 2 2 13 32 18 44 16 39-9 26-10 27-6-1-37-13-41-15-29-10-19-7-123-44-92-33-25-9-27-10-20-7-73-26-28-10-24-9-29-10-19-7-34-12-28-10-30-11-23-8-4 2-13 8-15 5h-22l-11-3-14-7-13-12-11 3-30 11-53 19-59 21-24 9-29 10-36 13-42 15-38 14-20 7-45 16-30 11-26 9-24 9-29 10-41 15-23 8-25 9-53 19-33 12-23 8-22 8-8 3h-4l-17-47-1-8 15-37 18-44 14-34 5 5 7 6 14 7 15 4 11 1h15l18-2 21-5 20-7 21-10 19-12 14-11 13-12 11-14 6-10 3-6-2-5-4-5-10-7-12-5-13-3-8-1h-21l-21 3-21 6-20 8-23 12-17 12h-1v-47l10-14 11-16 10-14 12-5 199-72 35-13 23-8 5-1v-2l-11-3-100-36-30-11-23-8-28-10-64-23-30-11-29-10-77-28 1-6 12-33 5-15 31-31-6-7-1-8 4-6z" fill="#693D44"/>
<path transform="translate(1e3 1194)" d="m0 0 4 2 11 10 16 8 9 2h22l15-5 10-6 5-4 11 3 30 11 29 10 21 8 29 10 41 15 23 8 39 14 33 12 26 9 24 9 23 8 36 13 45 16 39 14 27 10 29 10 78 28 38 14 20 7 45 16 23 8v1h-1527l4-2 25-9 24-9 71-25 36-13 27-10 29-10 80-29 26-9 125-45 81-29 59-21 36-13 53-19 41-15z" fill="#A7B7D2"/>
<path transform="translate(1658,615)" d="m0 0 7 5v2l4 2 7 7 8 7 10 9 3 2v2l4 2 7 7 8 7 13 12 8 7 15 14 10 9 8 7 15 14 8 7 10 9v12l-5 38-3 3-10 3-10 4-10 3-7 3-10 3-7 3-18 6-7 3-10 3-9 4-9 3-13 4-8 3-31 11-17 6-10 4-10 3-9 4-13 4-14 5-17 6-23 8-8 3-13 5-24 8-8 3-10 4-10 3-8 3-13 5-13 4-8 3-11 4-13 5-10 3-8 3-13 5-16 6-17 7-15 5-11 5-18 6-10 4-16 6-12 5-12 4-9 4-12 4-12 5-17 6-9 4-12 4-6 3-18 6-9 4-15 5-10 4-16 6-12 5-13 5-7-1-30-11-87-33-198-75-48-17-42-15-47-17-29-10-152-54-98-35-8-3v-23l1-34 10 3 49 19 25 10 36 14 69 27 105 41 23 9 43 17 49 19 56 22 33 13 72 28 120 47 28 11 24 9v-196l34-12 68-25 26-9 30-11 47-17 21-8 23-8 39-14 24-9 26-9 46-17 28-10 24-9 23-8 28-10 19-7 32-12 29-10 24-9z" fill="#FCD2BC"/>
<path transform="translate(1639,635)" d="m0 0h4l7 8 11 12v2h2l7 8 12 13 11 12 7 8 15 16 9 10 7 8 12 13v2l-7 3-57 19-40 13-67 23-50 17-31 11-23 8-36 13-31 11-60 22-40 15-18 7-38 15-24 10-13 5-50 21-14 7-18 8-16 8-19 10-19 12-3 1v-164l11-5 59-23 48-19 34-13 36-14 31-12 40-15 35-13 50-19 23-8 16-6 22-8 23-8 25-9 37-12 31-10 24-7 19-5z" fill="#FDEDE4"/>
<path transform="translate(462,635)" d="m0 0 9 1 27 7 33 10 36 12 47 16 72 26 19 7 24 9 53 20 84 32 46 18 28 11 21 8 30 12 38 15 7 3v164l-5-2-14-9-22-12-24-12-20-9-30-13-36-15-30-12-41-16-64-24-77-28-128-45-44-15-129-43-11-4 6-7 11-12 10-11 7-8 14-15 7-8 12-13 7-8 15-16 9-10z" fill="#FCD2BC"/>
<path transform="translate(1438,1038)" d="m0 0h7l24 9 26 9 21 8 23 8 91 33 99 36 1 1 5 43v48l-11-7-14-9-16-8-20-8-18-5-15-3-9-1h-23l-16 3-13 5-11 7-7 8 1 6 10 16 9 10 5 6 8 7 14 11 18 11 16 8 17 7 20 6 16 3 13 1h14l16-2 15-5 12-7 8-9 2 2 13 32 18 44 15 37v2l-11-3-21-8-29-10-30-11-34-12-120-43-39-14-27-10-20-7-54-19-30-11-45-16-28-10-134-48-30-11-31-11-14-5v-2l37-13 61-22 156-56 31-11z" fill="#44262B"/>
<path transform="translate(652,1042)" d="m0 0 5 1 40 14 25 9 19 7 23 8 192 69v2l-95 34-31 11-36 13-106 38-31 11-25 9-30 11-29 10-36 13-30 11-34 12-39 14-45 16-27 10-23 8-78 28h-2l3-10 17-41 20-49 7-17 5 5 7 6 14 7 15 4 11 1h15l18-2 21-5 20-7 21-10 19-12 14-11 13-12 11-14 6-10 3-6-2-5-4-5-10-7-12-5-13-3-8-1h-21l-21 3-21 6-20 8-23 12-17 12h-1v-47l10-14 11-16 10-14 12-5 199-72 35-13 23-8z" fill="#44262B"/>
<path transform="translate(652,1042)" d="m0 0 5 1 40 14 25 9 19 7 23 8 192 69v2l-95 34-31 11-36 13-106 38-31 11-50 18h-4l1-10 10-50 6-28 8-39 8-36 9-42z" fill="#440234"/>
<path transform="translate(1426,1042)" d="m0 0h3l6 26 8 37 7 32 13 61 7 35 5 24 3 15v6l-27-9-44-16-45-16-28-10-134-48-30-11-31-11-14-5v-2l37-13 61-22 156-56 31-11z" fill="#440234"/>
<path transform="translate(309,790)" d="m0 0h1v8l11 3 45 16 152 54 53 19 37 13 98 35 39 14 111 42 190 72 5 2 8-1 10-4 12-5 12-4 9-4 12-4 9-4 11-4 9-3 8-3 12-5 12-4 9-4 12-4 9-4 12-4 12-5 12-4 9-4 16-6 17-6 16-6 9-4 20-7 9-4 12-4 9-4 15-5 7-3 10-3 7-3 18-6 10-4 10-3 7-3 24-8 7-3 24-8 8-3 13-5 17-6 18-6 10-4 21-7 8-3 13-5 10-3 7-3 21-7 7-3 24-8 7-3 11-4 13-4 7-3 10-3 8-3 14-5 10-4 10-3 7-3 13-4 8-3 5-1 1-7 5 5 3 6-1 7-4 5-14 6-296 112-95 36-103 39-182 69-48 18h-19l-72-27-47-18-40-15-132-50-95-36-95-36-95-36-103-39-50-19-9-4-4-5-1-8 4-6z" fill="#3D808A"/>
<path transform="translate(311,741)" d="m0 0 10 3 49 19 25 10 36 14 69 27 105 41 23 9 43 17 49 19 56 22 33 13 72 28 120 47 28 11 24 9 1 2-1 37-10-3-309-117-48-17-42-15-47-17-29-10-152-54-98-35-8-3v-23z" fill="#FAD1BB"/>
<path transform="translate(448,615)" d="m0 0 27 9 171 62 80 29 30 11 42 15 204 74 30 11 20 7 2 3v194l-2 1-115-45-56-22-49-19-56-22-33-13-72-28-38-15-36-14-64-25-21-8-12-5-31-12-30-12-31-12-36-14-41-16-20-8 6-7 20-18 16-15 8-7 10-9 15-14 20-18 24-22 8-7zm14 20-10 11-7 8-14 15-11 12-7 8-12 13-9 10-10 11-7 8-14 15 2 2 43 14 41 14 48 16 82 28 48 17 43 15 55 20 49 18 60 23 43 17 34 14 35 15 35 16 26 13 19 11 10 7h2v-164l-27-11-84-33-101-39-42-16-43-16-24-9-19-7-21-8-23-8-30-11-52-18-33-11-32-10-25-7-14-3z" fill="#CCA793"/>
<path transform="translate(1801,747)" d="m0 0h2v11l-5 38-3 3-10 3-10 4-10 3-7 3-10 3-7 3-18 6-7 3-10 3-9 4-9 3-13 4-8 3-31 11-17 6-10 4-10 3-9 4-13 4-14 5-17 6-23 8-8 3-13 5-24 8-8 3-10 4-10 3-8 3-13 5-13 4-8 3-11 4-13 5-10 3-8 3-13 5-16 6-17 7-15 5-11 5-18 6-10 4-16 6-12 5-12 4-9 4-12 4-12 5-17 6-9 4-12 4-6 3-18 6-9 4-15 5-10 4-16 6-12 5-13 5h-3v-37l1-2 30-11 31-12 61-23 34-13 48-18 36-14 17-6 47-18 18-7 17-6 31-12 61-23 36-14 17-6 47-18 40-15 34-13 40-15 34-13 61-23z" fill="#FDEDE5"/>
<path transform="translate(462,635)" d="m0 0 9 1 27 7 33 10 36 12 47 16 72 26 19 7 24 9 53 20 84 32 46 18 28 11 21 8 30 12 38 15 7 3v164l-5-2-14-9-22-12-24-12-20-9-30-13-36-15-30-12-41-16-64-24-77-28-128-45-44-15-129-43-11-4 6-7 11-12 10-11 7-8 14-15 7-8 12-13 7-8 15-16 9-10zm11 16-9 11-12 14-11 13-12 14-11 13-12 14-3 5 127 44 48 17 30 11 29 10 47 17 41 15 72 27 26 10 41 16 37 15 24 10 26 11 29 13 16 8 19 10 5 3v-124l-14-6-36-14-33-13-26-10-36-14-47-18-40-15-20-8-22-8-29-11-20-7-16-6-55-20-49-17-54-18-35-10-9-2z" fill="#FCD2BC"/>
<path transform="translate(1639,635)" d="m0 0h4l7 8 11 12v2h2l7 8 12 13 11 12 7 8 15 16 9 10 7 8 12 13v2l-7 3-57 19-40 13-67 23-50 17-31 11-23 8-36 13-31 11-60 22-40 15-18 7-38 15-24 10-13 5-50 21-14 7-18 8-16 8-19 10-19 12-3 1v-164l11-5 59-23 48-19 34-13 36-14 31-12 40-15 35-13 50-19 23-8 16-6 22-8 23-8 25-9 37-12 31-10 24-7 19-5zm-13 16-24 6-30 9-54 18-48 17-58 21-64 24-43 16-44 17-42 16-41 16-49 19-33 13-12 5v124l5-2 26-14 30-14 44-19 50-20 38-15 42-16 75-28 55-20 92-33 78-27 55-19 28-10-4-6-13-15-12-14-9-11-10-11-9-11-12-14-2-2z" fill="#FDEDE4"/>
<path transform="translate(308,816)" d="m0 0 7 1 53 20 37 14 293 111 198 75 87 33 23 9 16 6 22 8 1 2-15 4-14 8-4 3-7-1-63-23-23-8-36-13-31-11-41-15-29-10-234-84-25-9-27-10-20-7-76-27-25-9-92-33-5-2 2-4z" fill="#44262B"/>
<path transform="translate(1779,822)" d="m0 0h4l9 11 11 13v2l-19 7-53 19-42 15-27 10-29 10-30 11-20 7-170 61-30 11-26 9-80 29-26 9-25 9-24 9-29 10-30 11-23 8-28 10-6 1-10-5-14-4 1-2 43-16 92-35 111-42 124-47 161-61 95-36 45-17z" fill="#440334"/>
<path transform="translate(301,801)" d="m0 0 15 6 48 18 18 7 17 6 43 16 18 7 16 6 33 12 21 8 27 10 86 32 72 27 29 11 17 6 75 28 158 59 48 18 12 4 41-15 29-11 43-16 75-28 43-16 18-7 16-6 33-12 18-7 16-6 33-12 56-21 43-16 75-28 46-17 15-6 16-6 44-16 21-8 70-26 1 4-3 6-8 5-12 4-12 5-280 106-95 36-103 39-182 69-48 18h-19l-72-27-47-18-40-15-132-50-95-36-95-36-95-36-103-39-50-19-9-4-4-5z" fill="#4CA6B7"/>
<path transform="translate(345,1189)" d="m0 0h1l1 43 14-10 16-9 19-9 20-7 18-4 15-2h23l16 3 13 5 9 6 6 5 4 6-2 6-6 11-9 11-11 12-11 9-12 9-20 12-22 10-15 5-21 5-18 2h-15l-16-2-15-5-11-6 3-1 1-8 10-38 6-25 5-18z" fill="#A7B8D3"/>
<path transform="translate(1735,1190)" d="m0 0 2 3 9 35 6 24 4 14 7 30-14 7-15 4-11 1h-14l-19-2-21-5-17-6-20-9-17-10-14-10-12-11-7-6-9-11-10-15-2-4 1-5 7-8 11-7 16-6 13-2h23l20 3 19 5 16 6 14 6 19 11 14 10z" fill="#A7B7D2"/>
<path transform="translate(444,1145)" d="m0 0h31l15 3 12 5 9 6 7 7 5 8 3 11v16l-4 13-1 2h-2l-6-8-10-7-12-5-13-3-8-1h-21l-21 3-21 6-20 8-23 12-17 12h-1v-45l8-8 18-11 23-11 20-7 17-4z" fill="#440335"/>
<path transform="translate(1606,1145)" d="m0 0h30l23 4 22 7 17 7 18 10 12 8 7 4v48l-11-7-14-9-16-8-20-8-18-5-15-3-9-1h-23l-16 3-13 5-11 7-8 9-2-2-4-13v-17l4-12 7-9 8-7 14-7 11-3z" fill="#440335"/>
<path transform="translate(1047,1116)" d="m0 0h14l9 3 9 5 8 8 6 12 2 10v8l-4 13-6 9-9 8-6 3-5 2-6 1h-12l-12-4-10-7-8-10-4-11v-17l4-12 7-9 9-7 9-4z" fill="#440235"/>
<path transform="translate(472,648)" d="m0 0 11 1 30 8 41 13 53 18 50 18 21 8 20 7 18 7 20 7 69 26 20 8 16 6 42 16 70 27 43 17 26 10 1 1v131l-11-6-23-12-32-15-34-15-37-15-45-18-21-8-26-10-80-30-69-25-118-42-21-7-43-15-44-15-21-7 2-4 9-11 13-15 9-10 7-9 10-11 9-11 12-14zm1 3-9 11-12 14-11 13-12 14-11 13-12 14-3 5 127 44 48 17 30 11 29 10 47 17 41 15 72 27 26 10 41 16 37 15 24 10 26 11 29 13 16 8 19 10 5 3v-124l-14-6-36-14-33-13-26-10-36-14-47-18-40-15-20-8-22-8-29-11-20-7-16-6-55-20-49-17-54-18-35-10-9-2z" fill="#CCA793"/>
<path transform="translate(1627,648)" d="m0 0h5l10 11 9 11 8 9 9 11 9 10 9 11 10 11 8 10 2 4-10 4-34 12-27 9-103 36-106 38-49 18-51 19-34 13-36 14-35 14-32 13-28 12-27 12-31 15-19 11-2 1v-131l27-11 72-28 31-12 57-22 53-20 96-36 55-20 29-10 37-13 47-15 24-7zm-1 3-24 6-30 9-54 18-48 17-58 21-64 24-43 16-44 17-42 16-41 16-49 19-33 13-12 5v124l5-2 26-14 30-14 44-19 50-20 38-15 42-16 75-28 55-20 92-33 78-27 55-19 28-10-4-6-13-15-12-14-9-11-10-11-9-11-12-14-2-2z" fill="#CCA793"/>
<path transform="translate(430,726)" d="m0 0 7 1 50 17 22 8 21 7 37 13 48 17 46 16 70 25 33 12 23 8 103 38 39 15 43 17 21 9 12 5 5 5-1 2-7-1-13-6-24-10-35-14-21-8-64-24-47-17-60-22-29-10-30-11-29-10-39-14-27-9-30-11-21-7-43-15-28-10-30-10-3-2z" fill="#FEEEE5"/>
<path transform="translate(443,711)" d="m0 0 7 1 53 18 43 15 24 8 29 10 28 10 29 10 28 10 21 7 48 17 22 8 23 8 36 13 46 17 35 13 41 16 29 12 18 8 3 2v4l-7-1-16-7-24-10-33-13-40-15-46-17-25-9-30-11-26-9-48-17-42-15-67-23-26-9-37-13-57-19-10-4-27-9-3-2z" fill="#FEEEE5"/>
<path transform="translate(457,696)" d="m0 0 11 3 51 17 41 14 35 12 29 10 56 19 42 15 27 9 42 15 37 13 21 8 23 8 35 13 44 17 25 10 25 11 5 3-1 4-6-1-27-12-16-6-12-5-29-11-15-6-20-7-57-21-23-8-36-13-29-10-28-10-27-9-28-10-30-10-43-15-36-12-50-17-33-11-5-3z" fill="#FEEEE5"/>
<path transform="translate(475,666)" d="m0 0 9 1 66 22 55 18 69 23 35 12 30 10 28 10 27 9 29 10 33 12 29 10 30 11 29 11 28 11 26 11 10 5 1 4-4 1-27-12-44-17-38-14-75-27-21-7-20-7-28-10-36-12-38-13-72-24-37-12-93-31-2-3z" fill="#FEEEE5"/>
<path transform="translate(474,680)" d="m0 0 17 5 43 14 153 51 41 14 35 12 58 20 48 17 63 23 36 14 26 11 12 6 1 4-4 1-15-7-25-10-17-7-16-6-85-31-60-21-33-11-82-28-108-36-37-12-51-17-2-4z" fill="#FEEEE5"/>
<path transform="translate(1047,1116)" d="m0 0h14l9 3 9 5 8 8 6 12 2 10v8l-4 13-6 9-9 8-6 3-5 2-6 1h-12l-12-4-10-7-8-10-4-11v-17l4-12 7-9 9-7 9-4zm0 9-12 5-8 8-4 8-1 3v16l4 9 8 9 10 5 4 1h12l12-5 9-9 4-10 1-5v-7l-3-10-4-6-5-5-8-5-6-2z" fill="#44262B"/>
</svg>
